<?xml version="1.0" encoding="utf-8"?>
<!-- Generator: Adobe Illustrator 25.2.1, SVG Export Plug-In . SVG Version: 6.00 Build 0)  -->
<!DOCTYPE svg PUBLIC "-//W3C//DTD SVG 1.1//EN" "http://www.w3.org/Graphics/SVG/1.1/DTD/svg11.dtd" [
	<!ENTITY ns_extend "http://ns.adobe.com/Extensibility/1.0/">
	<!ENTITY ns_ai "http://ns.adobe.com/AdobeIllustrator/10.0/">
	<!ENTITY ns_graphs "http://ns.adobe.com/Graphs/1.0/">
	<!ENTITY ns_vars "http://ns.adobe.com/Variables/1.0/">
	<!ENTITY ns_imrep "http://ns.adobe.com/ImageReplacement/1.0/">
	<!ENTITY ns_sfw "http://ns.adobe.com/SaveForWeb/1.0/">
	<!ENTITY ns_custom "http://ns.adobe.com/GenericCustomNamespace/1.0/">
	<!ENTITY ns_adobe_xpath "http://ns.adobe.com/XPath/1.0/">
]>
<svg version="1.1" xmlns:x="&ns_extend;" xmlns:i="&ns_ai;" xmlns:graph="&ns_graphs;"
	 xmlns="http://www.w3.org/2000/svg" xmlns:xlink="http://www.w3.org/1999/xlink" x="0px" y="0px" viewBox="0 0 233.4 460.8"
	 style="enable-background:new 0 0 233.4 460.8;" xml:space="preserve">
<style type="text/css">
	.st0{fill:#966D59;}
	.st1{fill:#875F51;}
	.st2{fill:#191919;}
	.st3{fill:#2A2A2B;}
	.st4{fill:#07164F;stroke:#07164F;stroke-width:0.234;stroke-miterlimit:10;}
	.st5{fill:#07143D;stroke:#07164F;stroke-width:0.234;stroke-miterlimit:10;}
	.st6{fill:#D68A05;}
	.st7{fill:#D68A05;stroke:#D69D0D;stroke-width:0.234;stroke-linecap:round;stroke-linejoin:round;stroke-miterlimit:10;}
	.st8{fill:#D69D0D;}
	.st9{fill:#D69D0D;stroke:#D68A05;stroke-width:1.6382;stroke-linecap:round;stroke-linejoin:round;stroke-miterlimit:10;}
	.st10{fill:none;stroke:#D68A05;stroke-linecap:round;stroke-linejoin:round;stroke-miterlimit:10;}
	.st11{fill:#FFFFFF;stroke:#1C110D;stroke-width:0.7021;stroke-linecap:round;stroke-miterlimit:10;}
	.st12{fill:#1C110D;}
	.st13{fill:#FFFFFF;stroke:#000000;stroke-width:7.675143e-02;stroke-miterlimit:10;}
	.st14{fill:#842606;}
	.st15{fill:none;stroke:#EFA30A;stroke-width:0.4681;stroke-linecap:round;stroke-linejoin:round;stroke-miterlimit:10;}
	.st16{fill:#4C1002;}
</style>
<metadata>
	<x:xmpmeta  xmlns:x="adobe:ns:meta/">
		<rdf:RDF  xmlns:rdf="http://www.w3.org/1999/02/22-rdf-syntax-ns#">
			
				<rdf:Description  rdf:about="" xmlns:dc="http://purl.org/dc/elements/1.1/" xmlns:exif="http://ns.adobe.com/exif/1.0/" xmlns:illustrator="http://ns.adobe.com/illustrator/1.0/" xmlns:pdf="http://ns.adobe.com/pdf/1.3/" xmlns:photoshop="http://ns.adobe.com/photoshop/1.0/" xmlns:stDim="http://ns.adobe.com/xap/1.0/sType/Dimensions#" xmlns:stEvt="http://ns.adobe.com/xap/1.0/sType/ResourceEvent#" xmlns:stMfs="http://ns.adobe.com/xap/1.0/sType/ManifestItem#" xmlns:stRef="http://ns.adobe.com/xap/1.0/sType/ResourceRef#" xmlns:tiff="http://ns.adobe.com/tiff/1.0/" xmlns:xmp="http://ns.adobe.com/xap/1.0/" xmlns:xmpG="http://ns.adobe.com/xap/1.0/g/" xmlns:xmpGImg="http://ns.adobe.com/xap/1.0/g/img/" xmlns:xmpMM="http://ns.adobe.com/xap/1.0/mm/" xmlns:xmpTPg="http://ns.adobe.com/xap/1.0/t/pg/">
				<tiff:Make>Apple</tiff:Make>
				<tiff:Model>iPhone 8 Plus</tiff:Model>
				<tiff:XResolution>72/1</tiff:XResolution>
				<tiff:YResolution>72/1</tiff:YResolution>
				<tiff:ResolutionUnit>2</tiff:ResolutionUnit>
				<xmp:CreatorTool>Adobe Illustrator 25.0 (Macintosh)</xmp:CreatorTool>
				<xmp:ModifyDate>2021-01-10T18:17-08:00</xmp:ModifyDate>
				<xmp:CreateDate>2021-01-10T18:16:59-08:00</xmp:CreateDate>
				<xmp:MetadataDate>2021-01-10T18:17-08:00</xmp:MetadataDate>
				<xmp:Thumbnails>
					<rdf:Alt>
						<rdf:li  rdf:parseType="Resource">
							<xmpGImg:width>172</xmpGImg:width>
							<xmpGImg:height>256</xmpGImg:height>
							<xmpGImg:format>JPEG</xmpGImg:format>
							<xmpGImg:image>/9j/4AAQSkZJRgABAgEASABIAAD/7QAsUGhvdG9zaG9wIDMuMAA4QklNA+0AAAAAABAASAAAAAEA
AQBIAAAAAQAB/+4ADkFkb2JlAGTAAAAAAf/bAIQABgQEBAUEBgUFBgkGBQYJCwgGBggLDAoKCwoK
DBAMDAwMDAwQDA4PEA8ODBMTFBQTExwbGxscHx8fHx8fHx8fHwEHBwcNDA0YEBAYGhURFRofHx8f
Hx8fHx8fHx8fHx8fHx8fHx8fHx8fHx8fHx8fHx8fHx8fHx8fHx8fHx8fHx8f/8AAEQgBAACsAwER
AAIRAQMRAf/EAaIAAAAHAQEBAQEAAAAAAAAAAAQFAwIGAQAHCAkKCwEAAgIDAQEBAQEAAAAAAAAA
AQACAwQFBgcICQoLEAACAQMDAgQCBgcDBAIGAnMBAgMRBAAFIRIxQVEGE2EicYEUMpGhBxWxQiPB
UtHhMxZi8CRygvElQzRTkqKyY3PCNUQnk6OzNhdUZHTD0uIIJoMJChgZhJRFRqS0VtNVKBry4/PE
1OT0ZXWFlaW1xdXl9WZ2hpamtsbW5vY3R1dnd4eXp7fH1+f3OEhYaHiImKi4yNjo+Ck5SVlpeYmZ
qbnJ2en5KjpKWmp6ipqqusra6voRAAICAQIDBQUEBQYECAMDbQEAAhEDBCESMUEFURNhIgZxgZEy
obHwFMHR4SNCFVJicvEzJDRDghaSUyWiY7LCB3PSNeJEgxdUkwgJChgZJjZFGidkdFU38qOzwygp
0+PzhJSktMTU5PRldYWVpbXF1eX1RlZmdoaWprbG1ub2R1dnd4eXp7fH1+f3OEhYaHiImKi4yNjo
+DlJWWl5iZmpucnZ6fkqOkpaanqKmqq6ytrq+v/aAAwDAQACEQMRAD8A9U4q7FXYq7FXYq7FXYq7
FXYqp3V1bWltLdXUqQW0CNLPPIwVERByZmY7BVAqScVeO/mb/wA5KeTtD8tyyeVdQtta12djDaxR
ktHEabzS7Cqr2H7R9q4CWYg+Trz8xPPd4968+vXxbUZfXvuE7x+q9OI5hCtVUbKv2V7AZC2ygkaX
16k5uEuJFnOxlDsHNKftVr2GKWa+VPzt/Mjy04Nprt5PEtOFrcyi4goOq8J1loD/AJBU42gxD6K/
K3/nKXy35iEOm+axHoetO3BLgVFjKT9mjsWMTeznj/lb0yQk1mD3QEEVHTJMHYq7FXYq7FXYq7FX
Yq7FXYq7FXYq7FXYq7FXYq8K/wCcgvz/AG8ocvLPll0fzHIlby7IDrZo4+EAHYzMDUV2UdQa5Eln
GNvj+5ubi5uJLi5laa4mYvLLISzszGpZmO5JyLap4q7FXYq7FX0P/wA44fnzc6Ze23kzzRcmTSbg
rDpF9Kd7VzskLsf91NsFP7B/yfskFhKL6yybU7FXYqltr5g0661u80aFma8sY0kuDQcB6nRQa/aG
xO3fIiQJpmcZERLvai8yaVNr0mhQyGW/hiM84QVSNQQOLt2Y8htjxi6U4zw8XRM8kwdirsVdirsV
dirsVdirsVY1+ZPnKHyb5I1bzFIA0lnD/osTdHuJCI4VPehkYVp2rgKQLL88dT1K91LUp7++ma4v
byV57mZzVnkclmY/MnINyI0zRNR1NblrOIy/VY/VkArUitOK+LHcge2RlIDm2RgZckCQQaHYjqMk
wdirsVcQQaEUPgcVdir7b/5xr/M9/OPk06bqMpk13QgkFy7GrTQMCIJjXctRSj+4qftZMFqmKevY
WCUW/mzQLqx1C9tLtZ4dL9QXvEEFDECWFGAPY0PQ9sjxirbDjkCAerx3y35vuNKsvMPmOUhtU1SU
QWQO49Ri0kr0P7MQZfwGYcMlAnqXYZMXEYx6BM/LGv2vlDTGlkjbUvNuuMsn1QElkVzWIStueTlu
fH7RqK065KEuAd8iwyQOQ90IvUfU8x/4d9X07f8AT3o8/Qo3oer19P7denw15dd+mZW9ebg1Hi/o
prkmDsVdirsVdirsVdirsVeAf85j6pJD5I0bTVbiLzUDLIK7lbeFhSnccpQfuyMmePm+PbvmqrKn
VOvyO2AM5d70vQtZvdI0OwFrDYypLBHNNAJJEnZ3UEsziNkqfA9Om+YOXJDiIJdrp9PmMAYxBHyT
678r6Pr1mt7cWa299MnLnE4NGPTkyfC/zpjHIRyOzGeG+YqTDJfIa6dCX1a9X13LejbWylqqDszO
/Gn/AAOSy6oR5BdN2dLIdzSVDTtGEjD1Zbgx/FJDC6GQIOp2VqU61pkI58kuUW7JotPAb5LPwV/M
g0C3tbW10uOYSuoluGmckqD9lOKnhVvtHavT3GZULPN1uThAoMfyxqeq/wDOMeq6hZfnFpFvaE+n
qMdzbXkdaBohA82/+q8St9GEMZ8n2L588wny/wCVb7UkP+kKnp2vf97IeKH/AGNeX0YzlQtGGHFI
B4douoJpv5fapSYG9167S34B6usNsPUd2A6cjJx361zEJqPvdiY3kHdFjyzSKEFarGSyI26hjSpo
duwylvpn3kG50nTr1Lz0Zdf80XY5W1rDusHPq0sz7cyD8Tb8e/fL8RAN85OLnBIr6YvafU1P9G+p
6MX6R9Pl9X9Q+l6lK8PU41p2rx+jMzenXbX5IrCxdirsVdirsVdirsVdir57/wCcy9PeTyhoGoBa
rbX7wM3cevCWH3+jkZNmN8iXYP1d6eH8cA5s5cnonkzytp2p+RTOzX0Wu3LgWd4ssRs1ihcoUkio
swNEI5Bj1+ztmPlGO9xu5enyZhEcMqDLfL1hLpr3Fg03qoqQzAEk8XkDLIAT+yWj5KOorvU7miVd
HJjKRPqNlM7PTNB/TH6Q1jS4tbiooSyupJUiQr3CxMqv/qyKww45RibrdGYTlHhEqj3JZBodtodz
qV3oMk9jYXaOZNO9QyKEqJDEhotFJQKagtxFK0LA2Sz3sGiOmrc9Hi888s88k8rF5ZWLux6lmNSc
yAHFJtZhQ90/5xC8vNffmHeawy1g0eyfi/hNcsI0H0xiTDFhM7Pp/wDMbyvN5k8rXFhbtS7jIuLU
HYNJGD8B/wBYEj545I2E4MnBK3zCyyRSMjApIhKspqCCNiCMwXbIy3dpVAAq9aUHc5AhL6U8h+Vb
by/oNtF6CJqMsavfS0+NnbfiW8ErQDpmwxQ4Q6jPlM5eTJMsaXYq7FXYq7FXYq7FXYq7FWA/nr5S
fzR+V2t2EKepeW8QvbNQKsZbU+pxUeLoGQfPAWUTRfAZAIIPQ7HINz0j8qdZt/0Y+izSqt1bSO9v
GTQvE/xVXxo3KuY2eO9uXpZ7cLL7y60/TJHvrm49BZOIZevIjYEKAXrTwzHO4py4xN7Iey8z2V8x
EEF01fssYHCsf9b7I+kjGmRiQmi8j9oUUgfCeo8QeoxYvLfMn5c+YrW8kn0vTLu90uXk8U9vBJKq
U3ZHZFIHGv3Zm45cQddmhwlIJPLXmONC8mlXiIu7M1vKAPmSuWNVvsH/AJxU8ny6H+XLandRGK91
24a4IYcXEEP7qFWB9w7j2bJxapnd7PhYPnrztomn6j5p1G7gR7MSSsJIPhP71TxdtunJgSR45xOt
9opRyyjGFcJrfyel02j/AHYs3snn5TeQ7OXWJdRun9aPTijwREbNK3LizH/I41p40+nb9ja4au5G
PDw04faI8IAA/U9pzfumdirsVdirsVdirsVdirsVdirsVYB5z/Ir8svN0slzqOkrb6hKavqFkfq8
xY9Wbj+7dvd1OCmQkQwnRvyp/IfyZcO31WbzFfA0Et2Y7kw0IPwcVghBqPtAFvfNLqu3tLhNXxn+
jv8AqDn4tBmnvXD7/wAWg/M2geVrmVrnQJpLNW+3Y3SkoPH03Qyn6G+/tmB/LukkdjKPvH6rc+Gm
zDY0fcwV4rS0nkVURZVPF2RRU096b5s8UxOIlHkUSBBoqUl07bL8I/HLQGLOoWZEVRyQKAFoTT6K
Z5nPNMkmy7qgBsmNtrut2pBt9QuI6fs+qxX/AIFiV/DL8XaWox/TOXzaZ4McucYn4PT/ACH5luda
06Vbxla9tXCSOoC80YVVyo2BO428M7zsPtKWqxHj+uJ3/W8/2jpRimOH6ZIb8xfMGo6Va2sFi/ov
eeoHmH21VAuy+FefXMf2i7QyaeERjNGd7+6uXzZ9maaGQky34aeWSFpHMjsWdiWZiSSSTUknvnn8
pEmzuS9ENtgyTyLr97p2sW9krg2V7MqTRED7b/ArBqVBrTN72B2jPFmjjv0TPLzLg9oaaOTGZfxR
D17PRnl3Yq7FXYq7FXYq7FXYq7FXYqtkkjjRpJGCRoCzuxoABuSScEpACzySASaDz7zp58tJ7R9M
0mRnMp43F0BReHdUJ3PLuelM4/trt6EoHFhNk85eXcHd6Ds6UZcc+nIPP84t3S16hSQOVP2fHCEh
gd2ZWuZWmUrIzFmU9iTXPTNLweFEQNxAFOnyA8RvmpZexZ7bkvGjEUAUbe9N88wzACRrvd0NgrZU
hGaPqE1jqlvJFeNYh5ESadSaCPkOXJRXkB4EZn9nZ548oIlwCxZ8mGXEJwII4tuXmyn817oPf6Ys
ZDRmJnVwagiRh0/4HN/7VTEpwA5cJPzdd2ND0zvvYVnIu0XRySRSJLEeMsbB428GU1B+8ZPHMwkJ
DmFoHY8nvGm3qX2nW16g4rcxJKF8Oag0+iueuafMMmOMx/EAfm8blx8EzHuNInLmt2KuxV2KuxV2
KuxV2KrZZI4o3lkYLGgLOx6AAVJOCUhEWeQSASaDx7zV5vvdbuGjRjDpqH9zbg05AdHk8SfDoPxz
zbtbtmepkYjbEOQ7/M/jZ6nSaKOEd8+/9THT9pfpzSuaOS7Ah2KoW7060uqGWMMR36H78ytPrMuH
6JEKYxl9QtDwaJp1vJ6oj+IfZqSafecyM3auoyx4ZS2+A+5jDFAG4jdMagAdhmuZtcyfsivv2xpN
d6jcAADux6nJwbMZVZ9TvbxLSG5kMi2iiKAnqsYOy/IdsyM2onkiBI3wih7u5AwxhxED6ua/MNqV
9Pspr/ULewgIE1y4RC32RXqT8hmTpNNLNkjAc5FjkmIRMjyD3PTLFLDTrayjYultGsQc9TxFK/Tn
q2nwjFjjAfwgB4/NkM5mR6lE5c1uxV2KuxV2KuxV2KuxVjfn3XINO0Ka3qDdX6NBDH34sKO59lU/
fTNL27ro4NOR/FMUP0l2HZ2nM8gPSO/6nkGeaPTLXB+0NiMIZBrmxH2DX5imNLQ726Oepp8v7cdl
sN8B8/nvjaLdxH0eHbG1t3FfAY2tlskAVPQYEIOV+bk9u2XRFOTGNB0IrIuMuSz5IzKXGdb3Ulnq
MF3F/eQMsqf60bcv4ZkafKccxMc4kFkYCUDE8j+l9BI6uiupqrAFT7HfPXAbFh4gitm8KHYq7FXY
q7FXYq7FXYq8P8zahcX+vXs8zcuMrxRDsscbFUUfRv8APPLO1tTLLqJmR5Ege4PX6XGIY4gd1/Ep
Zmtb1ATFkYNs3T79snw7tvBRV8g1OxV2KuxV2KrJv7tvlhjzZQ5oPLnJV7ZPiLdhsMhMtWQ9ERlb
StZAxBPUdPpwgpBp7p5clM3l/TZCas1rCWP+V6Yr+Oes6CXFggf6EfueP1UayyH9I/emOZbQ7FXY
q7FXYq7FXYqwD8zfMuoWTQ6bYztAZIzLcPGaPQtxRQw3X7JrTOU9o+0smIxxQPDYs97u+ydLGdzk
L3oPOkBCivXv884Ymy7w82mkRTQmhxopESVRdOuZ7SW+jjJtLZ0WeYdA0n2R+G/zGZMNPkOOWQD0
xoH4o8URPCT6jy+C3MVDsVdirsVdiqwsG5p3AyVdWQFUWY+aPJls/l+38w6ZGUaSGKe7tl3XjIgZ
nUdqE7jp8s63tHsmJwR1GIVcQZD3jmHW6PXkZTimepAP6GFWzbFfpzk5h2uUdVfINSpbW091cRW1
uvOeZhHEnizGgy3BhllmIR3JKJSEQSeQe7aXYpYadbWSNyW2iSIMe/EUr9OetabCMWOMB/CAHjs2
TjmZd5ROXNbsVdirsVdirsVdirxbznb3kPme/wDrZLPJIZInNaGJv7uleyr8P0Z5j25jnHVT4+ps
e7p+p6zQyicMeHu+3qkuahynYqqR3FzFDLBFM8cMwpLEpPBv9ZfsnLoajJEGIJ4TzHRSASCRZCjS
TxB98q2ZbODb0bY9fbGlruXYGLsVdiq14wxB6MOhGEFkJU9G8l+eLJoLXRNQiWDgiwQTg1jeg4hX
DfZLfcfbO47G7cxyjHBMcO1A9D73Ra/s+VnJA31I6rNe/KsS3bXOizxwK5q1rNyCKT14MoYge1Md
f7MicjLCRG+h5fBlp+2ajw5BfmGOT+RPNcMvp/UDLvRXjeMqfepYED5gZoJ+z+ria4L9xDmx7QwE
XxfezryZ5JTRwL29Ky6m6kALukKnqFPdj3b6B79Z2N2KNMOOe+U/Z7vPvPw9+o12v8X0x+j72V5v
3WOxV2KuxV2KuxV2KuxVIfNvlaDXbIBSIr6Gptpj036o9P2W/Drmq7W7Ljq8dcpjkf0Hyc3Raw4Z
d8TzeQ3tjeWNy9reRNDPGaMjfrB6EeBGebajTTwzMJipB6eGSMxcTYUMoZOxV2KqUu5Uf5QH8Tko
tkdlXItbsVdirsVaalDXphHNIe7aEb46NZG/BW89FPXB68qdW9z3989b0Rn4MPE+vhFvHanh8SXD
9N7I7MlpdirsVdirsVdirsVdirsVdirsVQGr6Fperw+lfQLLxrwk6Olf5WG4/VmJq9Di1EeHJG/v
HxbsOoniNxLELr8qIS7G11FkT9lJYg5+llZP+I5zeX2TgT6MhA8xf6Q7SHbB/ij9qRa1+X2saXYz
XxliuIYKF1j5+pxJA5cStNq1O/TNVrPZzNgxmdiQHdduZp+0ceSQjuCWLB1IJB2HXOfp2NLVVuVW
7dB7nrhJSTsvyLF2KuxVazgbd8IDIBL9Y1200TT5NTvJvSjt/ijI+2zjdQg2qa9MzdBpcufNGGIe
u/l5tefLDFAyly/G3xexflP+ZOmef/KcGrWxEd9FSHVLOoLQzgb+HwP9pD4bdQc9alilCgTfn3vF
CYluGZ5BLsVdirsVdirsVdirsVdirsVdirsVdirsVeZfmxbeV9JtbG5YW9jfX1z6SNyERkARmYBK
hWNaVNK5y3tB2XE4vExY/Ve/COm/Qfe7rszWS4uGctq2vvYMpJFVcMP8/DOELvm/j8B9/wDZjsjZ
1X8B9+K7KUkpRSzsI1AqWYgCmTjG+W7OgGIeYfzR8r6QrJDMNSvB0htyCgP+XJ9nr8z7Z0PZ/szq
tQbkPDh3y5/Ac/xzdbqu1sOLkeKXcP18njnmnzfrHmS89e+kpElfQtUqI4x7DufEnPR+y+ycOjhw
4xuecup/Z5PK6vWzzyuXLoOgZD+S/wCZN15C86W1+Xb9EXZW31eAbhoGP2wKj44ieS/SO+Z2XHxx
pxoSovvmOSOSNZI2DxuAyOpBBBFQQR1BzVOWuxV2KuxV2KuxV2KuxV2KuxV2KuxV2KuxV8m/85ia
zJN5v0TRw9YbKxa5KAjaS5lZTWnfjAvXNroI+knzcXOd3hllrmtWK8LO/uLdB+xFK6r/AMCDTLM+
gwZTeSEJHziCuPU5YfTKQ9xTaL8xfOsS8V1WWn+UqMfvZTmun7NaCR3xD7R9xckdq6kfx/d+pqb8
wvOky8X1WUD/ACQiH71UHDD2c0ETYxR+0/eVl2rqT/GfsSS/1bVb4/6beT3QBqBNI7gfLkTmXj0m
HEf3cIx9wA+5x558k/qkZe8oPLmt2KuxV97/AJB+YJNc/KXy9dTSepcQQNZTE9QbWRoUrTv6aKc1
eeNTLlYzYegZSzdirsVdirsVdirsVdirsVdirsVdirsVfFX/ADlPIzfm7eKeiWlqq/L0+X6zm50X
924eb6nkWZbU7FXYqpt1OY8+bMNZFLsVdir7S/5xNJP5TLU9NQuafcma7VfW5OLk9lzGbHYq7FXY
q7FXYq7FXYq7FXYq7FXYq7FXxn/zljZvb/mt6rAAXenW0yEGtQGkiqfDeI5uNCf3fxcTP9TxnMxp
dirsVWyRuoVypCuPhY9DQ0NMoyc2QWZBk7FXYq+6P+ca9MFj+Tmhk1El2bi5kr0+O4cLT/YKuazU
m5lycY9L0/KGx2KuxV2KuxV2KuxV2KuxV2KuxV2KuxV8r/8AOZOlyR695c1Wn7u4tZ7Wu+xt5BJv
/wAj9s2nZ8tiHG1A3D51zYOO7FXYq9L/ADD8kjSPyn/L7WuBWfUI7w3dehE0ontyPnE2YIyXkkO5
uMaiHl+WMXYquiikmlSKJS8kjBEQdSzGgAxV+j/lLRE0HytpGioqqNOs4LZuH2S0UYVm/wBkwJr3
zTzlZJcwCgm2RS7FXYq7FXYq7FXYq7FXYq7FXYq7FXYq8T/5y08vnUPy3h1SNC0mj3scjsO0M4ML
V/2bR5m6GdTrvac42fHObdxHYqrWdrLd3cFpCKzXEixRjxZ2Cj8TgJpX2T/zkN5OjP5GNY23xDy2
LOa3qNyluBbMfakUjHNLgn+8vvczJH0vivNi47sVei/84/eVG8yfmrosLIXtNPk/SN2ePJQlr8ac
h0o0vBN/HKs8uGBZYxZfeWapy3Yq7FXYq7FXYq7FXYq7FXYq7FXYq7FXYqkvnXy3D5m8patoMvGm
o2skMbPUKspWsTmm/wAEgVvoyeOfDIFEhYp+ddzbT2tzLbToY54HaOWM9VdDxYH5EZ0INuvU8Veg
/kDof6Z/Nvy9Cf7u1nN9IaVp9UUzL97oozH1UqxlniFyD7i8waRDrWg6jpE+0Oo2s1rISK0WaMoT
T25ZpYmjbmkWH5syRtHI0b7MhKsPcGhzcOGtxV9Pf84ZaLB6XmXW2Ws/KCyhf+VKNLIP9keH3Zha
w8g3YQ+mcwm92KuxV2KuxV2KuxV2KuxV2KuxV2KuxV2KuxV8Kf8AOQ+kR6X+b/mCOJeMVzJFdrtS
rXEKSSHYD/djNm80krxhwsoqRecZkNb3b/nEBLH/AJWBqbzMguxpjraoxHI1mjMhSvcBe3bMHX3w
D3t2Dm+tdQvrewsLm+uDxt7SJ55iOoSNSzfgM1QFmnLL80p5fVnklpT1GLU8ORrm5cJZir6w/wCc
NNSEnljzFplRW2vYrnjQVH1iLhWvX/j3zB1g3Bb8J2fQ+Ybc7FXYq7FXYq7FXYq7FXYq7FXYq7FX
Yq7FXYq+Pf8AnLrTUtvzJsrxAaX2mRPIT0MkcssZpt/Iq5t9AfR8XEzjd4fma0pj5c8war5d1yz1
vSpjBf2MglgkHSo2KsO6spKsO4yM4CQopBo2+5dc8y2/mf8AJHWNf0/ZdR8v3s0aCpKSG1kDR7gb
pICv0ZoxDhyAHvc0m42+BM2jiuxV7d/ziPrElp+Zk+n9YtTsJUYeDwssqt9ysPpzG1QuLZiO77Jz
XOS7FXYq7FXYq7FXYq7FXYq7FXYq7FXYq7FXYq+X/wDnMzTuN95X1IGvqxXdu4oNvSaJ13719Vs2
fZ52IcbUDk+bc2LjuxV9gfkFaX2of8493tg4eRbhdTt7OPc1SVWHFAPGRm6d81GqIGW/c5eL6Hx1
ma0OxV6//wA4qxs/5vWbDpHaXTN8vT4/rbKNT9DZi5vtjNY5LsVdirsVdirsVdirsVdirsVdirsV
dirsVdir59/5zHsXfyloF+B8EF+8DNt1nhLj3/3Qcz+zz6iPJozjYPk/Nq4rsVfe/wCRemPpv5R+
WLd14s9p9ZoadLp2uAdvES1zRak3kLnYx6Q+GPNmkvo/mnWNKccWsL24tiO37qVk29ts2UTYBcUi
ilWFXuH/ADiFZpP+Z95Mwb/RdKnkQjpzaaCOjf7F2zG1R9HxbMXN9j5rnJdirsVdirsVdirsVdir
sVdirsVdirsVdirsVeNf85YW3q/lSZP+WfULaT7w8f8AxvmZoT+8+DTn+l8ZZuHEXwQyTzxwRisk
rKiDxZjQYkq/STR9Oj0zSLHTYzyjsbeK2RqcarEgQGm9Ps5zkjZt2AFPh7/nI3RRpX5v66qA+let
FepXuZ4lZ/8AkpyzZ6c3AONkG7zTLmD6D/5w2t+XnDXrin93p6x1/wCMk6np/wA88xNX9IbcPN9a
ZgOQ7FXYq7FXYq7FXYq7FXYq7FXYq7FXYq7FXYq88/5yEtTdfk55ljArxhhl7/7puYpO3+pmRpTW
QNeX6S+EM3jhMw/J/Rv0x+Z/lmwMfqo1/FNLH1rHbn15K+3CM1ynPKoE+TLGLkH6BZoXPfKn/OZW
hNFr/l7XVA4XVrLZOR1DW8nqLX5i4NPlmfpJbEOPmG75zzLan0//AM4XWiiDzZdlQWZrGJHoKgKJ
2YA+/IVzC1h5N2Hq+mMwm92KuxV2KuxV2KuxV2KuxV2KuxV2KuxV2KuxVj/5haeuo+QvMdiyB/rG
mXaKCK/EYG4kVB3DUI98sxGpg+bGQ2L87c6BwHtn/OJWi/XfzLn1Btk0qwmlU0r+8mZYQP8AgHfM
LXSqFd5bsA9T7GzUOW8c/wCcrPL/AOk/yrkvkjDTaNdw3XL9oRuTA4Ht+9Un5Zk6WVSrva8o2fFe
bFxn15/zh1pwi8havfn7d1qbRU2+zBBGQa9esrZgas+oByMPJ73mI2uxV2KuxV2KuxV2KuxV2Kux
V2KuxV2KuxV2KtMqupVgGVhRlO4IPY4q/N/zJpEujeYdT0iZeEun3U1q6k1oYZCnXevTOihKwC68
ii+l/wDnDbSEj0HzFrB4mS4uobRTUFwLeMyHbqA3rj509s1vaEtwHIwDYl9FZr3ISD8wLLT77yL5
gtdRdYrKXTroTzSAlY1ELH1DxBPwU5bCu2TxmpCkS5PznzbuE+3v+cXLBbX8ndMmDAm+uLu4YDsR
O0ND9ENc1upNzcrENnrOY7Y7FXYq7FXYq7FXYq7FXYq7FXYq7FUs8zeZNJ8taDe65q0vo6fYx+pM
4FWO4Cqo7s7EKo8Tir5L81f85XfmNqN9KdBMGh2ANLdFijuJuIOxkedZELH/ACUA/XirtH/5y0/M
2yjZL6Kw1Qn7Mk0LROP+RDRrT/Y4qt1z/nLL8zdQtmgsYrDSeQobi3ieSYV8DM8iD/gMVeN3d3dX
l1Nd3cz3F1cO0s88rF3d3NWZmO5JJ3OXQ1E4igWBxxPN6f8A847fmWvkzzsltfTenoWtcba+JPwx
yVPoTH/VZuLH+Vie2VymZGyyAA5Pt7Ipebf85CebV8u/ljqixycdQ1df0bZID8R9cUmYeHGHma+N
PHFXw99Rl41qK+GGyin1h/ziJ5j+teTtT8vTN/pGk3frRIe0F0tRTxpLG5PzwJe9Yq7FXYq7FXYq
7FXYq7FXYq7FXYq7FXl//OR3lbWvMf5ZXFtpAeW4tbmG7ktIkeWSeNOSGNVjBJIMgfp+zir5B/5V
z55/6sWof9Ilx/zRiq6L8s/P0r8IvL2pSP14rZXLH7gmKo+3/Jj80bjj6flnUV5dPUtpYunj6irT
6cVTO2/5x2/N+5p6fl+Va1p6stvF0/4ySLiqb2n/ADix+bE1PVtLa2rSvq3MRpXr/dtJ0xV9U/lh
pPm3R/JdhpPmqaK51OwBgW5hkaX1IFP7ouWSP4lX4O9QASak4q+a/wDnKJvM8Pn2N9alB0qSI/oG
KNiUSFaCSq9pGfdz327AUVePxSrM/CINI/Xiisx+4DFXr3/OONt5tsfzN094bG8t9NvI54NQnktp
RAYhC0qqzlQqnmi8TXrt3xV9gYq7FXYq7FX/2Q==
								</xmpGImg:image>
						</rdf:li>
					</rdf:Alt>
				</xmp:Thumbnails>
				<exif:ExposureTime>1/15</exif:ExposureTime>
				<exif:FNumber>9/5</exif:FNumber>
				<exif:ExposureProgram>2</exif:ExposureProgram>
				<exif:DateTimeOriginal>2020:12:26 16:42:53</exif:DateTimeOriginal>
				<exif:ShutterSpeedValue>47539/12167</exif:ShutterSpeedValue>
				<exif:ApertureValue>54823/32325</exif:ApertureValue>
				<exif:BrightnessValue>27278/12645</exif:BrightnessValue>
				<exif:ExposureBiasValue>0/1</exif:ExposureBiasValue>
				<exif:MeteringMode>5</exif:MeteringMode>
				<exif:Flash>16</exif:Flash>
				<exif:FocalLength>399/100</exif:FocalLength>
				<exif:SubSecTimeOriginal>766</exif:SubSecTimeOriginal>
				<exif:SubSecTimeDigitized>766</exif:SubSecTimeDigitized>
				<exif:PixelXDimension>3024</exif:PixelXDimension>
				<exif:PixelYDimension>4032</exif:PixelYDimension>
				<exif:SensingMethod>2</exif:SensingMethod>
				<exif:SceneType>1</exif:SceneType>
				<exif:GPSLatitudeRef>N</exif:GPSLatitudeRef>
				<exif:GPSLongitudeRef>W</exif:GPSLongitudeRef>
				<exif:GPSAltitudeRef>0</exif:GPSAltitudeRef>
				<exif:GPSAltitude>107090/6047</exif:GPSAltitude>
				<exif:GPSSpeedRef>K</exif:GPSSpeedRef>
				<exif:GPSSpeed>0/1</exif:GPSSpeed>
				<exif:GPSImgDirectionRef>T</exif:GPSImgDirectionRef>
				<exif:GPSDirection>189588/2255</exif:GPSDirection>
				<exif:GPSDestBearingRef>T</exif:GPSDestBearingRef>
				<exif:GPSDestBearing>189588/2255</exif:GPSDestBearing>
				<photoshop:DateCreated>2020-12-26</photoshop:DateCreated>
				<dc:format>image/svg+xml</dc:format>
				<dc:title>
					<rdf:Alt>
						<rdf:li>avatar_wave</rdf:li>
					</rdf:Alt>
				</dc:title>
				<xmpMM:DocumentID>xmp.did:ef7efdd0-165b-4719-8c68-489aab5e3c41</xmpMM:DocumentID>
				<xmpMM:InstanceID>xmp.iid:ef7efdd0-165b-4719-8c68-489aab5e3c41</xmpMM:InstanceID>
				<xmpMM:OriginalDocumentID>xmp.did:87172619-3db1-404a-a640-008804905d26</xmpMM:OriginalDocumentID>
				<xmpMM:RenditionClass>default</xmpMM:RenditionClass>
				<xmpMM:DerivedFrom  rdf:parseType="Resource">
					<stRef:instanceID>uuid:bc73ddfd-b6ef-1f4d-bf2d-5a3d27680c2e</stRef:instanceID>
					<stRef:documentID>xmp.did:87172619-3db1-404a-a640-008804905d26</stRef:documentID>
					<stRef:originalDocumentID>xmp.did:87172619-3db1-404a-a640-008804905d26</stRef:originalDocumentID>
					<stRef:renditionClass>default</stRef:renditionClass>
				</xmpMM:DerivedFrom>
				<xmpMM:History>
					<rdf:Seq>
						<rdf:li  rdf:parseType="Resource">
							<stEvt:action>saved</stEvt:action>
							<stEvt:instanceID>xmp.iid:87172619-3db1-404a-a640-008804905d26</stEvt:instanceID>
							<stEvt:when>2020-12-26T22:06:08-08:00</stEvt:when>
							<stEvt:softwareAgent>Adobe Illustrator 25.0 (Macintosh)</stEvt:softwareAgent>
							<stEvt:changed>/</stEvt:changed>
						</rdf:li>
						<rdf:li  rdf:parseType="Resource">
							<stEvt:action>saved</stEvt:action>
							<stEvt:instanceID>xmp.iid:ef7efdd0-165b-4719-8c68-489aab5e3c41</stEvt:instanceID>
							<stEvt:when>2021-01-10T18:17-08:00</stEvt:when>
							<stEvt:softwareAgent>Adobe Illustrator 25.0 (Macintosh)</stEvt:softwareAgent>
							<stEvt:changed>/</stEvt:changed>
						</rdf:li>
					</rdf:Seq>
				</xmpMM:History>
				<xmpMM:Manifest>
					<rdf:Seq>
						<rdf:li  rdf:parseType="Resource">
							<stMfs:linkForm>EmbedByReference</stMfs:linkForm>
							<stMfs:reference  rdf:parseType="Resource">
								<stRef:filePath>/Users/vanessacuevas/Desktop/IMG_5222.jpg</stRef:filePath>
							</stMfs:reference>
						</rdf:li>
					</rdf:Seq>
				</xmpMM:Manifest>
				<xmpMM:Ingredients>
					<rdf:Bag>
						<rdf:li  rdf:parseType="Resource">
							<stRef:filePath>/Users/vanessacuevas/Desktop/IMG_5222.jpg</stRef:filePath>
						</rdf:li>
					</rdf:Bag>
				</xmpMM:Ingredients>
				<xmpTPg:NPages>1</xmpTPg:NPages>
				<xmpTPg:HasVisibleTransparency>False</xmpTPg:HasVisibleTransparency>
				<xmpTPg:HasVisibleOverprint>False</xmpTPg:HasVisibleOverprint>
				<xmpTPg:MaxPageSize  rdf:parseType="Resource">
					<stDim:w>926.646916</stDim:w>
					<stDim:h>1953.340829</stDim:h>
					<stDim:unit>Pixels</stDim:unit>
				</xmpTPg:MaxPageSize>
				<xmpTPg:PlateNames>
					<rdf:Seq>
						<rdf:li>Cyan</rdf:li>
						<rdf:li>Magenta</rdf:li>
						<rdf:li>Yellow</rdf:li>
						<rdf:li>Black</rdf:li>
					</rdf:Seq>
				</xmpTPg:PlateNames>
				<xmpTPg:SwatchGroups>
					<rdf:Seq>
						<rdf:li  rdf:parseType="Resource">
							<xmpG:groupName>Default Swatch Group</xmpG:groupName>
							<xmpG:groupType>0</xmpG:groupType>
						</rdf:li>
					</rdf:Seq>
				</xmpTPg:SwatchGroups>
				<illustrator:CreatorSubTool>Adobe Illustrator</illustrator:CreatorSubTool>
				<pdf:Producer>Adobe PDF library 15.00</pdf:Producer>
			</rdf:Description>
		</rdf:RDF>
	</x:xmpmeta>
	<sfw  xmlns="&ns_sfw;">
		<slices></slices>
		<sliceSourceBounds  bottomLeftOrigin="true" height="2032.8" width="1540" x="-371.2" y="80.3"></sliceSourceBounds>
	</sfw>
</metadata>
<g id="Layer_17">
	<path class="st0" d="M192.7,45.7c-1.8,0.1-2.9-0.1-3.3,1.5c-1.7,7-10.8,18.9-4.3,28c3.1,4.4,11.7,2.9,13.8,3.8
		c2.1,0.9,8.9-10.3,10.5-16.2C210.6,58.3,205,44.8,192.7,45.7z"/>
	<path class="st0" d="M189.1,48.5c0,0,7.7-26.8,10.2-24c4,4.3-4,26.4-4,26.4L189.1,48.5z"/>
	<path class="st0" d="M196.4,49.4l4.5,3.4c0,0,19.2-28.6,13.6-28C211.1,25.2,200.3,41,196.4,49.4z"/>
	<path class="st0" d="M198.5,54.4l5.9,4c0,0,26.5-27,17.1-23.1C212.4,39.1,200.4,52.3,198.5,54.4z"/>
	<path class="st0" d="M205.6,57.7l2.2,4.9c0,0,25-16.8,10.9-11C212.6,53.7,206.5,56.9,205.6,57.7z"/>
	<path class="st0" d="M184.4,75.8c-0.7,0-1.3,0.6-1.1,1.3c0.3,1,0.5,2.3,0.2,3.3c-0.4,1.6,9.3,3.3,12.4,3.8c0.5,0.1,1-0.2,1.2-0.7
		l3.6-6.3c0.2-0.7-2.1-0.8-2.8-0.8L184.4,75.8z"/>
	<path class="st1" d="M183.4,78.1c0,0-3.8-7.6-8.3-13.9c-4.7-6.6,4.4-17.6,4.4-21.6c0-4,6-2.3,5.4,3.5c-0.2,1.6,0.2,1.3-1.3,6
		c-4.8,8.1,7.4,3.2,12.6,13.7C204.4,82.4,183.4,78.1,183.4,78.1z"/>
</g>
<g id="Layer_15">
	<path class="st2" d="M141.5,447.9c0,0,1.2,0.7,0.7,3.9c-0.5,3.2,32.2-0.5,32.2-0.5s1.8-1.4-2.4-5.5
		C168,441.9,141.5,447.9,141.5,447.9z"/>
	<path class="st2" d="M149.9,422.2c0,0-3.1,14.8-7.9,19.5c-4.8,4.8,31.3,1.9,31.3,1.9s-6.5-17.2-6.9-28.6
		C165.9,403.6,149.9,422.2,149.9,422.2z"/>
	<path class="st3" d="M140.7,448.5c0,0,16.6,2.2,30.8-0.1c11.7-1.9-8.5-15.2-14.5-15.4C150.6,432.7,133.1,446.5,140.7,448.5z"/>
	<path class="st3" d="M46.4,444.8c0,0,2.9,1,1.7,5.5s77.8-2.5,77.8-2.5s4.3-0.2-5.7-6C110.6,436.3,46.4,444.8,46.4,444.8z"/>
</g>
<g id="Layer_13">
	<path class="st2" d="M112,421.9c0,0.1,0.1,0.1,0.1,0.2c0.7,1.3,9.1,17.3,13,21.5c3.8,4.2-69.5,3.8-77,3.7c-0.4,0-0.8-0.2-1-0.5
		c-3.1-3.7,3.9-24.5,27.2-16c0.1,0,0.1,0,0.2,0c16.9,1.3,21.8-4.2,25.2-9.3C101.9,418.2,109.6,418.6,112,421.9L112,421.9z"/>
	<path class="st4" d="M74.6,224.2c-8.8,18.8-4.3,62,8,90.5c5.6,36.5,7.8,86.6,13.5,109.4c1,4.1,8.7,5.3,12.4,3.3
		c1-0.5,3.5-1.1,4.4-2.2c0.6-0.8-0.5-1.9-0.3-2.9c2.7-12.2,10.9-53,13.2-72.4c0.4-3.5,0-7.1-1.2-10.5c-4.6-12.6-8.7-12.8-9.4-17.8
		c-0.7-5.7,17.1-67.2,13-76.8c-2.4-5.7-1.6-12.9-1.9-18.3c-0.2-3.5-7-5.4-10.5-5.3l-31,0.2C81.8,221.4,75.9,221.4,74.6,224.2z"/>
</g>
<g id="Layer_14">
	<path class="st5" d="M126.1,220c0,0-8.2,16.2,9.2,82.2c1.9,7.3,1.9,15,0,22.4c-2.4,9.2,0.8,43.1,15,95.5c0.5,1.8-2.9,3.7-1.1,4.3
		c4.4,1.5,16.6,0.5,17.7-1c1.4-1.9,9-79.3,6.3-90.5s-6.5-18.1,0-36.8c16.9-48.8,7.8-68.3-0.3-79.9s-12.9-17.3-14.5-18.1
		C156.6,197.2,126.1,220,126.1,220z"/>
</g>
<g id="Layer_10">
	<path class="st6" d="M147.7,105.5c0,0,1.6-7.5,18,8.6c0.3,18.4,2,26.2,0.3,17.3c-1.6-8.9-2.4-10.6-0.4-14s11.9,11.7,11.9,11.7
		s28.4,14.1,29,23s-10.1,29.1-16.4,29.6c-6.3,0.6-11.1-2.6-12.2-2.3s-11.3-0.2-19.5-16.4c-15-9.5-13.1-12.4-12-15.5
		c1.1-3.2,12.6-21.6,6.6-14.1c-6,7.5-5.2,12.7-7.4,11.5c-2.2-1.2-3.3-8.9-1.9-11.2S147.7,105.5,147.7,105.5z"/>
</g>
<g id="Layer_11">
	<path class="st7" d="M177.9,96.2l-4.9,10.5l-0.6,15.2l5.8,18l26.4,7.6c0,0-2.6-31-0.7-33c1.9-2-4.5-18.4-4.5-18.4L177.9,96.2z"/>
	<g>
		<path class="st8" d="M179.5,81.5c0,0,2.6,3.7,1.4,5.2c-1.3,1.5-8.9,4.9-8.7,6.8s-2.4,21.2-0.4,29.8c2,8.6,1.7-14.3,3-18.4
			s1.6,41.5-4,46.9c-5.7,5.4,4.2,24.5,7.8,26.7c3.6,2.2,19,8.3,29.5-19.4c0,0-2.1-32.1-6.4-29.9s1.6,9.8,0.7,15.8
			c-0.8,6-3.6-7.6-3.8-15.5c3.1-8.8,13.5-6.5,7.7-21.7c-5.8-15.3,0.1-15.6-10.1-18.8c3.9-6.1,1.7-8.7,1.7-8.7S186,75.5,179.5,81.5z"
			/>
		<path class="st6" d="M179.6,81.5c0.5,0.7,1.1,1.6,1.4,2.5c0.2,0.5,0.3,1,0.4,1.5c0,0.5-0.1,1.1-0.5,1.5c-0.7,0.7-1.6,1.2-2.4,1.8
			l-2.5,1.6c-0.8,0.5-1.6,1.1-2.3,1.7c-0.4,0.3-0.7,0.6-0.9,1c-0.1,0.2-0.2,0.4-0.2,0.5c0,0.2,0,0.5,0,0.8c-0.1,2-0.3,3.9-0.4,5.9
			c-0.3,3.9-0.5,7.8-0.5,11.7c0,3.9,0,7.8,0.8,11.5c0.1,0.4,0.2,0.9,0.4,1.3c0,0.1,0.1,0.2,0,0c0,0-0.1-0.1-0.3-0.1
			c-0.1,0-0.3,0.1-0.3,0.1c-0.1,0.1-0.1,0.1-0.1,0.1c0-0.1,0.1-0.3,0.1-0.5c0.2-0.9,0.3-1.9,0.3-2.8c0.2-1.9,0.2-3.9,0.4-5.8
			c0.1-2,0.2-3.9,0.3-5.9c0.1-1,0.2-2,0.3-3c0.1-0.5,0.1-1,0.3-1.5c0-0.1,0.1-0.3,0.1-0.4c0-0.1,0-0.1,0.1-0.2
			c0.1-0.1,0-0.2,0.3-0.4c0.1-0.1,0.2-0.2,0.4-0.2c0.3,0,0.5,0,0.6,0.1c0.2,0.2,0.2,0.3,0.3,0.3c0.1,0.1,0.1,0.2,0.1,0.3
			c0,0.2,0.1,0.3,0.1,0.4c0.3,2.1,0.3,4,0.4,6c0,2,0,3.9,0,5.9c0,3.9-0.2,7.9-0.5,11.8c-0.3,3.9-0.6,7.8-1.2,11.7
			c-0.3,1.9-0.6,3.9-1.1,5.8c-0.2,1-0.5,1.9-0.9,2.8c-0.4,0.9-0.7,1.9-1.5,2.7c-1.4,1.3-1.8,3.3-1.8,5.2c0,1.9,0.4,3.8,0.9,5.7
			c1,3.7,2.7,7.3,4.6,10.7c1,1.6,2.1,3.3,3.5,4.6c0.7,0.5,1.6,0.9,2.5,1.3c0.9,0.3,1.8,0.6,2.8,0.8c3.8,0.7,7.7-0.3,11-2.3
			c3.2-2.1,5.7-5.1,7.8-8.4c1.1-1.6,1.9-3.4,2.8-5.1c0.8-1.7,1.5-3.6,2.3-5.4l0,0.3c-0.4-5.6-1.1-11.2-1.9-16.7
			c-0.4-2.8-0.9-5.5-1.6-8.2c-0.4-1.3-0.8-2.7-1.4-3.7c-0.2-0.3-0.3-0.5-0.5-0.6c-0.2-0.1-0.1,0-0.2,0c-0.5,0.3-0.8,0.6-1,1.1
			c-0.3,1-0.1,2.4,0.3,3.7c0.3,1.3,0.8,2.7,1.2,4c0.4,1.4,0.7,2.8,0.8,4.3c0,0.7,0,1.5-0.1,2.3c-0.1,0.4-0.1,0.7-0.3,1.2
			c-0.1,0.1-0.1,0.3-0.3,0.5c-0.1,0.1-0.3,0.2-0.5,0.3c-0.2,0.1-0.5,0-0.7,0c-0.4-0.2-0.4-0.3-0.6-0.4c-0.1-0.1-0.2-0.2-0.2-0.3
			c-0.4-0.8-0.6-1.5-0.8-2.2c-0.2-0.7-0.4-1.4-0.5-2.1c-0.3-1.4-0.5-2.8-0.8-4.2c-0.4-2.8-0.7-5.6-0.8-8.5c0-0.1,0-0.2,0-0.3
			c0.7-2,2-3.9,3.6-5.3c1.5-1.4,3.2-2.6,4.3-4c1.2-1.4,1.6-3.2,1.5-5.1c-0.1-1-0.2-1.9-0.5-2.9c-0.1-0.5-0.2-1-0.4-1.4l-0.5-1.4
			c-0.6-1.9-1.4-3.8-1.9-5.8c-0.5-2-1-4-1.3-6c-0.2-1-0.3-2-0.4-3c-0.2-1-0.5-1.8-1.1-2.4c-0.3-0.3-0.7-0.5-1.1-0.8
			c-0.4-0.2-0.9-0.4-1.3-0.6c-0.9-0.4-1.9-0.7-2.8-1l0,0c-0.3-0.1-0.4-0.4-0.3-0.6c0,0,0-0.1,0.1-0.1c0.4-0.6,0.8-1.3,1.1-2
			c0.3-0.7,0.6-1.4,0.8-2.1c0.2-0.7,0.3-1.4,0.3-2.2c0-0.7-0.2-1.5-0.5-2l0.2,0.1c-1.5-0.6-3-1-4.5-1.3c-1.6-0.3-3.1-0.5-4.7-0.6
			c-1.6,0-3.2,0.2-4.7,0.6C182.2,79.8,180.8,80.6,179.6,81.5z M179.5,81.5c1.2-1.2,2.6-2,4.2-2.5c1.5-0.5,3.2-0.7,4.8-0.8
			c1.6,0,3.2,0.1,4.8,0.4c1.6,0.3,3.2,0.7,4.7,1.2l0,0c0.1,0,0.1,0.1,0.1,0.1c0.6,0.8,0.7,1.6,0.8,2.4c0,0.8-0.1,1.6-0.3,2.4
			c-0.2,0.8-0.5,1.5-0.8,2.2c-0.3,0.7-0.7,1.4-1.2,2.1l-0.3-0.8c1,0.3,1.9,0.6,2.9,1c0.5,0.2,1,0.4,1.4,0.6c0.5,0.3,0.9,0.5,1.4,0.9
			c0.9,0.8,1.3,2,1.5,3c0.2,1,0.3,2,0.5,3c0.3,2,0.8,3.9,1.3,5.8c0.6,1.9,1.3,3.7,2,5.7l0.5,1.5c0.2,0.5,0.3,1,0.4,1.5
			c0.3,1,0.4,2.1,0.5,3.1l0,1.6c0,0.5-0.2,1.1-0.3,1.6c-0.2,0.5-0.4,1.1-0.6,1.6c-0.3,0.5-0.5,1-0.9,1.4c-1.4,1.7-3.1,2.9-4.5,4.2
			c-1.4,1.3-2.5,2.9-3.1,4.7l0-0.3c0.1,2.8,0.4,5.5,0.8,8.3c0.2,1.4,0.5,2.7,0.8,4.1c0.1,0.7,0.3,1.3,0.5,2c0.2,0.6,0.4,1.3,0.6,1.8
			c0,0.1,0.1,0.1,0.1,0.1c0,0,0,0-0.2-0.1c-0.1,0-0.3-0.1-0.4,0c-0.1,0-0.2,0.1-0.3,0.1c-0.1,0.1,0,0.1,0,0c0.1-0.2,0.1-0.5,0.2-0.8
			c0.1-0.6,0.1-1.3,0.1-1.9c-0.1-1.3-0.4-2.6-0.7-4c-0.4-1.3-0.8-2.7-1.2-4.1c-0.2-0.7-0.3-1.4-0.4-2.2c-0.1-0.8-0.1-1.6,0.2-2.5
			c0.3-0.9,1-1.6,1.8-2c0.3-0.1,0.6-0.2,1-0.2c0.4,0,0.6,0.2,0.9,0.4c0.4,0.3,0.7,0.7,0.9,1c0.8,1.4,1.2,2.8,1.5,4.2
			c0.7,2.8,1.1,5.6,1.5,8.4c0.8,5.6,1.3,11.2,1.6,16.9l0,0c0,0.1,0,0.2,0,0.2c-0.8,1.8-1.5,3.7-2.4,5.4c-0.9,1.7-1.8,3.5-2.9,5.2
			c-2.1,3.3-4.8,6.5-8.2,8.6c-3.4,2.1-7.6,3.1-11.5,2.2c-1-0.2-1.9-0.5-2.9-0.8c-0.9-0.4-1.8-0.8-2.7-1.4c-1.5-1.4-2.6-3.1-3.6-4.8
			c-2-3.4-3.6-7-4.7-10.8c-0.5-1.9-0.9-3.8-1-5.8c0-1,0.1-2,0.4-3c0.3-1,0.9-1.9,1.6-2.6c0.6-0.7,1-1.6,1.3-2.5
			c0.3-0.9,0.6-1.8,0.8-2.8c0.4-1.9,0.7-3.8,1-5.8c0.5-3.9,0.7-7.8,0.9-11.7c0.2-3.9,0.2-7.8,0.3-11.7c0-2,0-3.9-0.1-5.9
			c-0.1-1.9-0.1-3.9-0.4-5.8c0-0.1,0-0.2-0.1-0.3c0,0,0-0.1,0,0c0,0,0,0.1,0.2,0.2c0.1,0.1,0.3,0.1,0.5,0.1c0.2,0,0.3-0.1,0.3-0.2
			c0.1-0.2,0.1-0.1,0.1-0.1l0,0.1l-0.1,0.3c-0.1,0.4-0.2,0.9-0.2,1.4c-0.1,0.9-0.2,1.9-0.3,2.9c-0.2,1.9-0.3,3.9-0.4,5.8
			c-0.1,2-0.2,3.9-0.4,5.9c-0.1,1-0.2,2-0.4,3c-0.1,0.3-0.1,0.5-0.3,0.9c-0.1,0.1-0.1,0.2-0.3,0.4c-0.1,0.1-0.3,0.2-0.5,0.1
			c-0.2,0-0.4-0.1-0.4-0.1c-0.3-0.3-0.3-0.4-0.4-0.6c-0.3-0.6-0.4-1-0.5-1.5c-0.8-4-0.8-7.9-0.7-11.9c0.1-3.9,0.4-7.8,0.8-11.8
			c0.2-1.9,0.4-3.9,0.5-5.8c0-0.3,0-0.4,0-0.7c0-0.4,0.1-0.7,0.3-0.9c0.3-0.5,0.7-0.8,1.1-1.1c0.8-0.6,1.6-1.2,2.5-1.7l2.5-1.5
			c0.8-0.5,1.7-1,2.4-1.6c0.6-0.6,0.4-1.7,0.1-2.6C180.5,83.2,180,82.4,179.5,81.5z"/>
	</g>
</g>
<g id="Layer_12">
	<path class="st9" d="M77.2,214.3c0,0-3,4.9-2.3,9c0.8,4.1,64.8,18.1,89.7-18.8c0,0-3.8-1.9-3.4-12.1L77.2,214.3z"/>
</g>
<g id="Layer_9">
	<g>
		<path class="st8" d="M75.7,106.9l-28.3,30.6c0,0,17,34,20.4,44.5c3.4,10.5-5.7,21.3-4.8,27.8s66.6,24.1,85.3-5.1
			c16.7-9.9-7.4,16.8-28.4,18.2c0,0,24.7,5.1,46.2-29.8c-5.7-19.3-19.8-13-25.2-24.4c-5.4-11.3,6.8,9.4,9.6,6.5s-6-30-0.3-34.9
			c5.7-4.8,17.6-31.7-1.7-36.9C129.2,98.4,75.7,106.9,75.7,106.9z"/>
		<path class="st6" d="M75.7,107l-14,15.5l-14,15.4l0.1-0.6c6.4,12.7,12.7,25.4,18.3,38.5c0.4,0.8,0.7,1.6,1,2.5
			c0.3,0.8,0.7,1.7,1,2.5c0.3,0.8,0.6,1.7,0.8,2.6c0.1,0.4,0.2,0.9,0.2,1.4c0,0.5,0.1,0.9,0.1,1.4c0.1,3.7-0.7,7.3-1.9,10.7
			c-0.6,1.7-1.2,3.4-1.9,5c-0.6,1.7-1.2,3.3-1.6,5c-0.1,0.4-0.1,0.8-0.2,1.2c-0.1,0.4,0,0.8,0,1.2c0,0.5,0,0.6,0.2,0.9
			c0.2,0.3,0.5,0.5,0.8,0.8c1.3,1,2.9,1.7,4.5,2.4c6.5,2.7,13.4,4.3,20.4,5.5c7,1.2,14,1.8,21.1,1.6c7.1-0.2,14.2-1.1,20.8-3.5
			c6.6-2.4,12.8-6.5,16.6-12.5c0,0,0.1-0.1,0.1-0.1c0.8-0.5,1.7-1,2.6-1.4c0.4-0.2,0.9-0.4,1.4-0.6c0.2-0.1,0.5-0.2,0.7-0.2
			c0.3,0,0.5-0.1,0.9,0c0.2,0.1,0.3,0.3,0.4,0.4c0,0.2,0,0.3,0,0.5c-0.1,0.3-0.2,0.5-0.3,0.7c-0.3,0.4-0.5,0.9-0.9,1.2
			c-0.6,0.8-1.3,1.5-2,2.2c-2.8,2.8-5.9,5.2-9.2,7.3c-3.3,2.2-6.7,4.1-10.4,5.6c-3.6,1.5-7.5,2.6-11.4,2.9l0.1-0.8
			c2.3,0.3,4.7,0.2,7.1-0.1l1.8-0.3l1.7-0.4c1.2-0.2,2.3-0.6,3.4-1c4.5-1.5,8.7-3.9,12.6-6.7l2.8-2.2l2.6-2.4l1.3-1.2l1.2-1.3
			l2.4-2.6c1.5-1.8,3-3.8,4.4-5.6l4-6l-0.1,0.6l-1.1-3c-0.4-1-0.9-1.9-1.3-2.9c-0.3-0.5-0.6-0.9-0.8-1.3c-0.3-0.4-0.5-0.9-0.9-1.3
			c-0.7-0.8-1.3-1.6-2.1-2.3c-0.7-0.7-1.6-1.3-2.5-1.9c-0.9-0.5-1.8-1.1-2.8-1.5c-1.9-0.9-3.9-1.7-5.9-2.7c-2-1-4-2.2-5.5-3.9
			l-1.1-1.3l-0.9-1.5c-0.6-1-1-2-1.4-3c-0.1-0.3-0.2-0.5-0.3-0.9c0-0.1-0.1-0.2,0-0.6c0.1-0.2,0.1-0.3,0.4-0.5
			c0.3-0.2,0.6-0.2,0.7-0.1c0.1,0,0.3,0.1,0.3,0.1l0.1,0.1c0.3,0.2,0.3,0.3,0.5,0.4c0.4,0.4,0.8,0.9,1.1,1.3l2,2.5
			c1.4,1.7,2.8,3.3,4.3,4.7c0.4,0.3,0.8,0.6,1.2,0.9c0.2,0.1,0.4,0.2,0.5,0.2c0.1,0,0.2,0,0.2,0c0,0,0.2-0.3,0.3-0.8
			c0.1-0.5,0.1-1,0.1-1.5c-0.1-2.1-0.4-4.2-0.7-6.4c-0.6-4.3-1.4-8.6-1.8-12.9c-0.2-2.2-0.4-4.4-0.3-6.6c0.1-1.1,0.2-2.3,0.4-3.4
			c0.3-1.1,0.7-2.3,1.8-3.3c0.7-0.6,1.4-1.5,2-2.3c0.6-0.9,1.2-1.8,1.7-2.7c1-1.9,1.9-3.8,2.7-5.8c1.5-4,2.5-8.2,2.3-12.4
			c-0.1-2.1-0.6-4.2-1.5-6c-0.9-1.8-2.3-3.4-4.1-4.5c-1.8-1.1-3.7-1.8-5.9-2.2l-1.6-0.3c-0.5-0.1-1-0.2-1.6-0.3l-3.2-0.4
			c-1.1-0.1-2.2-0.1-3.2-0.2c-1.1,0-2.2-0.1-3.2-0.2c-2.2,0-4.3-0.1-6.5,0c-8.7,0.1-17.3,0.7-26,1.6C92.9,104.7,84.3,105.8,75.7,107
			z M75.6,106.8c17.2-2.8,34.5-4.9,51.9-5.4c2.2-0.1,4.4,0,6.5,0c1.1,0,2.2,0.1,3.3,0.1c1.1,0.1,2.2,0.1,3.3,0.2l3.3,0.3
			c0.5,0,1.1,0.1,1.6,0.3l1.6,0.3c2.2,0.3,4.4,1.1,6.3,2.3c1.9,1.2,3.6,3,4.6,5c1.1,2,1.6,4.3,1.7,6.5c0.3,4.5-0.7,8.9-2.2,13.1
			c-0.8,2.1-1.7,4.1-2.8,6c-0.5,1-1.1,1.9-1.8,2.8c-0.7,0.9-1.3,1.8-2.3,2.6c-0.6,0.5-1,1.4-1.2,2.4c-0.2,1-0.3,2-0.4,3.1
			c-0.1,2.1,0.1,4.2,0.3,6.4c0.4,4.3,1.2,8.6,1.8,12.9c0.3,2.2,0.6,4.3,0.7,6.6c0,0.6,0,1.1-0.1,1.8c-0.1,0.3-0.1,0.6-0.3,1
			c0,0.2-0.2,0.4-0.3,0.5c-0.1,0.2-0.3,0.4-0.5,0.5c-0.5,0.3-1,0.3-1.4,0.2c-0.4-0.1-0.7-0.2-1-0.4c-0.6-0.3-1-0.7-1.5-1.1
			c-1.7-1.5-3.1-3.2-4.5-4.9l-2-2.5c-0.3-0.4-0.7-0.8-1-1.2c-0.1-0.1-0.2-0.2-0.2-0.1l0,0c0,0,0.1,0.1,0.2,0.1c0,0,0.3,0,0.6-0.1
			c0.2-0.1,0.2-0.2,0.3-0.4c0.1-0.3,0-0.2,0-0.2c0,0.1,0.1,0.4,0.2,0.6c0.4,0.9,0.8,2,1.3,2.9l0.8,1.3l1,1.2c1.4,1.5,3.1,2.6,5,3.6
			c1.9,0.9,4,1.7,5.9,2.7c1,0.5,2,1.1,2.9,1.6c0.9,0.7,1.9,1.3,2.7,2.1c0.9,0.7,1.6,1.6,2.3,2.5c0.4,0.4,0.6,0.9,1,1.4
			c0.3,0.5,0.6,0.9,0.9,1.4c0.5,1,1,2,1.4,3l1.1,3.1c0.1,0.2,0,0.4-0.1,0.6l-4.1,6.1c-1.5,1.9-3,3.8-4.6,5.7l-2.5,2.7l-1.3,1.3
			l-1.4,1.2l-2.7,2.4l-2.9,2.2c-4,2.8-8.3,5.2-13,6.7c-1.2,0.3-2.3,0.8-3.5,1l-1.8,0.4l-1.8,0.2c-2.4,0.3-4.9,0.4-7.4,0
			c-0.2,0-0.4-0.3-0.4-0.5c0-0.2,0.2-0.3,0.4-0.4l0,0c3.8-0.2,7.6-1.3,11.2-2.8c3.6-1.5,7-3.3,10.3-5.4c3.3-2.1,6.4-4.5,9.1-7.2
			c0.7-0.7,1.4-1.4,2-2.1c0.3-0.4,0.6-0.8,0.8-1.2c0.2-0.4,0.4-0.9,0.2-0.9c-0.3-0.1-0.8,0-1.2,0.2c-0.4,0.1-0.9,0.3-1.3,0.6
			c-0.9,0.4-1.7,0.9-2.6,1.4l0.1-0.1c-2,3-4.4,5.7-7.3,7.8c-2.9,2.1-6.1,3.8-9.4,5c-6.7,2.5-13.9,3.5-21,3.8
			c-7.1,0.3-14.3-0.3-21.3-1.3c-3.5-0.5-7-1.2-10.5-2.1c-3.5-0.9-6.9-1.9-10.2-3.3c-1.7-0.7-3.3-1.5-4.8-2.6
			c-0.4-0.3-0.8-0.6-1.1-1.1c-0.1-0.1-0.2-0.2-0.2-0.4c-0.1-0.1-0.1-0.3-0.2-0.4c-0.1-0.4-0.1-0.6-0.1-0.8c0-0.5-0.1-1,0-1.4
			c0.1-0.5,0.1-0.9,0.2-1.4c0.4-1.8,1-3.5,1.6-5.2c0.6-1.7,1.3-3.3,1.8-5c1.2-3.3,2-6.7,1.9-10.1c-0.1-1.7-0.4-3.3-1-5
			c-0.3-0.8-0.6-1.7-0.9-2.5c-0.3-0.8-0.6-1.6-1-2.5c-2.7-6.5-5.7-13-8.7-19.4c-3-6.4-6.1-12.8-9.2-19.2l0,0
			c-0.1-0.2-0.1-0.4,0.1-0.5l14.3-15.2L75.6,106.8z"/>
	</g>
</g>
<g id="Layer_16">
	<g>
		<path class="st6" d="M92.2,181.9c0.4,2.5,0.3,5,0,7.5c-0.2,2.5-0.7,4.9-1.3,7.3c-0.6,2.4-1.5,4.7-2.6,7c-1.1,2.2-2.6,4.5-4.8,5.9
			c1-2.3,1.5-4.6,2.2-6.9l1.8-6.9c0.6-2.3,1.3-4.6,2-6.9C90.3,186.5,91.1,184.2,92.2,181.9z"/>
	</g>
	<g>
		<path class="st6" d="M183.6,87.4c1.4-0.1,2.8,0.2,4.1,0.4c1.3,0.3,2.6,0.6,3.9,1.1c-0.7,0.2-1.4,0.3-2.1,0.3
			c-0.7,0-1.4-0.1-2.1-0.2c-0.7-0.2-1.3-0.3-2-0.6C184.9,88.1,184.2,87.8,183.6,87.4z"/>
	</g>
</g>
<g id="Layer_8">
	<path class="st7" d="M63.7,114.8c0,0,2.8,40.6-0.4,47.1s-30.9,2.4-30.9,2.4L17,172.9c0,0,5.3-14.2,15-21.5S63.7,114.8,63.7,114.8z"
		/>
	<g>
		<path class="st8" d="M60.2,108.3c0,0-23.8,11.4-23.8,21.4s-11.7,15.5-11.3,22.3c0.4,6.8-2.7,20-4.3,17c-1.7-2.9,5.2-12.6,2.8-10.6
			s-7,1.5-7.7,8.4c-0.7,6.8-6.4,6.1-3.3,13c3.1,6.8,17.7,24.7,34.7,26s18.4,3.5,25.4,8c7,4.5,6.4-8.2,8.8-8.2c2.4,0,4.2,0.1,4.2,0.1
			s4.5-7.4,3.6-16.2l-1.3-1.5c0,0,0-13.7-16.6-9.6c0,0-20.1-8.7-27.4-9.1s6.1-0.8,9.2,1.3c3.1,2.1,7.3-9.6,7.3-9.6
			s-9.8-20.1-5.3-1.8c0,0-4.9-8.8-3.1-10.7c1.8-2,8.8,10.7,8.8,10.7S74.2,116.3,60.2,108.3z"/>
		<path class="st6" d="M60.1,108.3c-3.8,1.9-7.5,4.2-11.1,6.6c-3.5,2.5-6.9,5.1-9.6,8.5c-1.3,1.6-2.4,3.5-2.6,5.6c0,0.5,0,1-0.1,1.6
			c0,0.6-0.1,1.1-0.2,1.7c-0.2,1.1-0.6,2.2-1,3.2c-1.8,4.1-5,7.2-7.5,10.6c-1.2,1.7-2.3,3.6-2.3,5.5c0,0.4,0.1,1.1,0,1.6
			c0,0.6,0,1.1,0,1.7c0,1.1-0.1,2.2-0.3,3.3c-0.3,2.2-0.6,4.3-1.2,6.4c-0.3,1.1-0.6,2.1-1,3.2c-0.2,0.5-0.4,1.1-0.8,1.6
			c-0.2,0.3-0.4,0.6-1,0.8c-0.4,0.1-0.8-0.1-1-0.3c-0.2-0.2-0.3-0.3-0.4-0.5c-0.4-0.7-0.4-1.4-0.3-2c0.1-0.6,0.2-1.2,0.3-1.7
			c0.3-1.1,0.7-2.1,1.2-3.1c0.4-1,0.9-2,1.4-2.9c0.2-0.5,0.5-1,0.6-1.4c0,0,0-0.1,0,0.1c0,0.1,0,0.1,0.1,0.3
			c0.1,0.2,0.3,0.2,0.4,0.3c0.1,0,0.2,0,0.2,0c0,0,0,0,0.1,0c0,0-0.1,0.1-0.2,0.1c-0.2,0.2-0.5,0.4-0.7,0.5c-1,0.6-2.1,0.9-3,1.4
			c-0.9,0.5-1.7,1-2.3,1.8c-0.6,0.8-1,1.7-1.2,2.7c-0.1,0.5-0.2,1-0.3,1.5c-0.1,0.6-0.1,1.1-0.3,1.7c-0.3,1.1-0.8,2.2-1.4,3.1
			c-0.6,0.9-1.4,1.7-1.9,2.6c-1.2,1.6-0.6,3.7,0.3,5.6c1.8,3.8,4.5,7.2,7.4,10.4c2.9,3.2,6.1,6.1,9.6,8.5c3.5,2.4,7.3,4.5,11.5,5.7
			c4.1,1.3,8.5,1.1,12.8,1.8c4.3,0.5,8.7,1.3,12.5,3.5c1.9,1,3.7,2.3,5.5,3.4c0.9,0.6,1.8,1.1,2.8,1.2c1,0.1,1.8-0.5,2.4-1.3
			c1.1-1.7,1.5-3.9,2.2-5.9c0.2-0.5,0.4-1.1,0.8-1.6c0.1-0.1,0.3-0.3,0.5-0.3c0.2-0.1,0.5-0.1,0.6-0.1l0.8,0c1.1,0,2.2,0,3.3,0.1
			l-0.5,0.2c0.7-1.2,1.2-2.5,1.7-3.7c0.5-1.3,0.9-2.6,1.2-4c0.3-1.3,0.5-2.7,0.6-4.1c0.1-1.4,0.1-2.7,0-4.1l0.1,0.3l-1.3-1.5
			c-0.1-0.1-0.1-0.2-0.1-0.4l0,0c-0.1-1.7-0.6-3.6-1.5-5.1c-0.9-1.5-2.2-2.8-3.8-3.5c-1.6-0.8-3.4-1-5.2-1c-1.8,0-3.6,0.3-5.4,0.7
			c-0.2,0-0.3,0-0.5,0l0,0c-4.3-1.8-8.6-3.5-12.9-5c-2.2-0.8-4.4-1.5-6.6-2.2c-2.2-0.7-4.4-1.3-6.6-1.6c-0.5-0.1-1.1-0.1-1.7-0.1
			l-0.9-0.1c-0.2,0-0.3,0-0.5-0.1c0,0-0.1,0-0.2,0l-0.1,0l-0.1,0c0,0,0,0-0.1-0.1c-0.1-0.1-0.2-0.2-0.2-0.3c0,0-0.2-0.4-0.1-0.8
			c0.2-0.4,0.2-0.3,0.3-0.4c0.1,0,0.1-0.1,0.2-0.1c0.3-0.1,0.3-0.1,0.3-0.1l0.2,0c1.3-0.1,2.4,0,3.6,0c1.2,0.1,2.4,0.2,3.5,0.3
			c1.2,0.2,2.4,0.4,3.6,0.9c0.3,0.1,0.6,0.3,0.9,0.5c0.1,0.1,0.2,0.1,0.3,0.1c0.2,0,0.6-0.2,1-0.5c0.7-0.7,1.3-1.6,1.9-2.6
			c1.1-1.9,2-4.1,2.8-6.2l0,0.6c-0.7-1.4-1.4-2.9-2.2-4.3c-0.8-1.4-1.6-2.8-2.5-4c-0.2-0.3-0.5-0.6-0.7-0.7c0,0-0.1-0.1-0.1-0.1
			c0,0,0.1,0.1,0.3,0c0.2-0.1,0.2-0.2,0.2-0.2c0,0,0,0,0,0.1c-0.1,0.5,0,1.4,0.1,2.1c0.2,1.5,0.6,3.1,1,4.7l0,0
			c0.1,0.4-0.2,0.9-0.6,1c-0.4,0.1-0.7-0.1-0.9-0.4c-1-2-2-3.9-2.7-6c-0.4-1.1-0.7-2.1-0.8-3.4c0-0.6,0-1.3,0.5-2
			c0.1-0.2,0.3-0.4,0.6-0.5c0.3-0.1,0.6-0.1,0.8-0.1c0.5,0.1,0.8,0.3,1,0.5c1,0.8,1.7,1.6,2.4,2.5c0.7,0.9,1.3,1.8,1.9,2.7
			c1.2,1.8,2.3,3.7,3.4,5.6l-1.2,0.1c1.3-4.2,2.4-8.5,3.3-12.8c0.9-4.3,1.7-8.7,2.2-13.1c0.4-4.4,0.7-8.8,0.1-13.2
			c-0.3-2.2-0.8-4.3-1.7-6.4C63.4,111.3,62,109.4,60.1,108.3z M60.2,108.2c2,1.1,3.5,2.9,4.4,5c1,2,1.5,4.2,1.9,6.4
			c0.7,4.4,0.6,8.9,0.2,13.4c-0.4,4.4-1.1,8.8-1.9,13.2c-0.9,4.4-1.9,8.7-3.2,13c-0.1,0.3-0.5,0.5-0.8,0.4c-0.2,0-0.3-0.2-0.4-0.3
			l0,0c-1.1-1.9-2.2-3.7-3.4-5.5c-0.6-0.9-1.2-1.8-1.9-2.6c-0.6-0.8-1.3-1.7-2.1-2.2c-0.2-0.1-0.4-0.2-0.4-0.2c0,0,0,0,0,0
			c0,0,0,0,0,0c-0.1,0.2-0.2,0.6-0.2,1.1c0.1,0.9,0.4,2,0.7,2.9c0.7,2,1.7,3.9,2.7,5.8l-1.5,0.6c-0.4-1.6-0.8-3.2-1-4.8
			c-0.1-0.8-0.3-1.6-0.1-2.7c0-0.1,0.1-0.3,0.1-0.5c0.1-0.2,0.2-0.5,0.6-0.7c0.4-0.2,0.8-0.1,0.9,0c0.2,0.1,0.3,0.2,0.4,0.3
			c0.4,0.4,0.7,0.7,1,1c1,1.4,1.8,2.8,2.6,4.2c0.8,1.4,1.5,2.9,2.3,4.3l0,0c0.1,0.2,0.1,0.4,0,0.6c-0.8,2.2-1.8,4.4-2.9,6.5
			c-0.6,1-1.2,2.1-2.2,3c-0.5,0.4-1.1,0.9-2.1,1c-0.5,0-1-0.2-1.3-0.4c-0.2-0.1-0.4-0.2-0.6-0.3c-0.9-0.4-2.1-0.6-3.2-0.7
			c-1.1-0.2-2.3-0.3-3.4-0.3c-1.1-0.1-2.3-0.1-3.3,0l-0.1,0c0,0-0.1,0,0.1-0.1c0,0,0.1-0.1,0.1-0.1c0-0.1,0.1,0,0.3-0.4
			c0.2-0.4-0.1-0.7-0.1-0.7c-0.1-0.1-0.1-0.2-0.2-0.2c-0.1-0.1-0.1-0.1-0.1-0.1l0,0l-0.1,0c0,0,0,0,0,0c0.1,0,0.2,0,0.4,0.1l0.8,0.1
			c0.5,0,1.2,0.1,1.8,0.2c2.4,0.4,4.6,1,6.9,1.7c2.2,0.7,4.4,1.5,6.6,2.3c4.4,1.6,8.7,3.3,13,5.2l-0.5,0c1.9-0.4,3.8-0.8,5.8-0.7
			c2,0,4,0.3,5.8,1.2c1.8,0.9,3.3,2.4,4.3,4.2c1,1.8,1.5,3.7,1.5,5.7l-0.1-0.4l1.2,1.5l0,0c0.1,0.1,0.1,0.2,0.1,0.3
			c0.1,1.4,0.1,2.9,0,4.3c-0.1,1.4-0.4,2.8-0.7,4.2c-0.3,1.4-0.8,2.8-1.3,4.1c-0.5,1.3-1.1,2.6-1.8,3.9c-0.1,0.2-0.3,0.2-0.4,0.2
			l0,0c-1.1-0.1-2.1-0.1-3.2-0.2l-0.8,0c-0.2,0-0.2,0-0.2,0c0,0-0.1,0.1-0.2,0.1c-0.3,0.3-0.5,0.8-0.7,1.3c-0.7,2-1.1,4.2-2.4,6.1
			c-0.3,0.5-0.7,0.9-1.3,1.2c-0.5,0.3-1.2,0.4-1.8,0.4c-1.2-0.1-2.2-0.8-3.1-1.4c-1.8-1.2-3.6-2.5-5.4-3.5c-3.7-2.1-8-2.9-12.3-3.5
			c-2.1-0.3-4.3-0.5-6.4-0.6c-2.2-0.1-4.3-0.5-6.4-1.1c-4.2-1.2-8.1-3.2-11.7-5.7c-3.6-2.4-6.9-5.3-9.9-8.5
			c-2.9-3.2-5.7-6.5-7.8-10.5c-0.5-1-0.9-2.1-1.1-3.2c-0.2-1.2,0.1-2.5,0.8-3.5c0.6-1,1.4-1.8,1.9-2.6c0.6-0.9,1-1.8,1.2-2.7
			c0.1-0.5,0.2-1,0.3-1.5c0.1-0.6,0.1-1.1,0.3-1.7c0.3-1.1,0.7-2.2,1.4-3.2c0.7-1,1.7-1.7,2.8-2.2c1-0.5,2-0.9,2.9-1.4
			c0.2-0.1,0.4-0.3,0.6-0.4c0.1-0.1,0.2-0.2,0.5-0.3c0.1,0,0.1,0,0.2-0.1c0.1,0,0.2,0,0.3,0c0.2,0,0.4,0.1,0.5,0.3
			c0.1,0.2,0.1,0.3,0.2,0.4c0,0.3,0,0.4,0,0.5c-0.2,0.7-0.5,1.1-0.7,1.6c-0.5,1-0.9,1.9-1.4,2.9c-0.4,1-0.8,1.9-1.1,2.9
			c-0.3,0.9-0.5,2.1-0.1,2.6c0,0.1,0.1,0.1,0.1,0.1c0,0-0.1-0.1-0.2,0c-0.1,0.1,0.1-0.1,0.2-0.2c0.2-0.3,0.5-0.8,0.6-1.3
			c0.4-1,0.7-2,0.9-3c0.5-2.1,0.9-4.2,1.2-6.3c0.3-2.1,0.4-4.2,0.3-6.4c0-1.2,0.4-2.3,0.9-3.4c0.5-1,1.1-2,1.8-2.8
			c2.7-3.5,5.8-6.5,7.6-10.3c0.4-0.9,0.8-1.9,1-3c0.1-0.5,0.2-1,0.2-1.5c0-0.5,0-1,0.1-1.6c0.3-2.3,1.5-4.3,2.9-6
			c2.8-3.4,6.4-6,9.9-8.4C52.5,112.2,56.2,110.1,60.2,108.2z"/>
	</g>
	<g>
		<path class="st8" d="M85.4,190.3c0,0-1.1,8-4.1,12.4"/>
		<path class="st6" d="M85.4,190.3c0,1.1-0.1,2.2-0.3,3.3c-0.2,1.1-0.4,2.2-0.7,3.2c-0.3,1.1-0.7,2.1-1.2,3.1c-0.5,1-1.1,2-1.9,2.8
			c0.9-2,1.6-4.1,2.2-6.1C84.1,194.5,84.7,192.4,85.4,190.3z"/>
	</g>
</g>
<g id="Layer_7">
	<g>
		<path class="st8" d="M77,94.9c-0.3,0-7.4,3.1-7.7,3.1c-2.5,0.4-7.9,5.7-9.2,10.2c-1.5,5,1.2,17.6-0.7,20.9
			c-1.9,3.3,8.1,9.1,11.8,9.3c3.7,0.3,37.1-13.8,40.7-7c3.5,6.8,5.4-7.4,9.4-7.5s-1.6,2.4-1.2,4.9c0.4,2.5,27.2-0.3,38.4-16.5
			c10.5-15.1-2.3-2.9-3.6-16.5c-0.2-2.4-1.9-4.4-4.2-5.2c-12.1-4.4-38.8-4.9-45.1,2.1C99.1,100.1,79.9,94.8,77,94.9z"/>
		<path class="st6" d="M77,95c-2.6,1-5.2,2.2-7.9,3.2c-1.3,0.4-2.5,1.3-3.5,2.3c-1,1-2,2-2.8,3.2c-0.8,1.1-1.6,2.4-2.1,3.7
			c-0.5,1.3-0.7,2.7-0.7,4.1c-0.1,2.8,0.2,5.7,0.4,8.5c0.1,1.4,0.2,2.8,0.2,4.3c0,1.4,0,2.9-0.4,4.4c-0.1,0.2-0.1,0.4-0.2,0.6
			l-0.2,0.5c-0.1,0.2-0.1,0.4-0.1,0.7c0.1,0.5,0.4,1.1,0.8,1.6c0.8,1,1.9,1.9,3.1,2.6c1.2,0.8,2.4,1.4,3.6,2
			c1.2,0.6,2.6,1.1,3.8,1.2c0.4,0,1.2-0.1,1.9-0.3c0.7-0.2,1.4-0.4,2-0.6c1.4-0.4,2.7-0.8,4.1-1.2c5.4-1.7,10.9-3.4,16.5-4.7
			c2.8-0.6,5.6-1.2,8.5-1.5c1.4-0.1,2.9-0.2,4.3-0.1c0.7,0.1,1.5,0.2,2.2,0.5c0.7,0.3,1.3,0.9,1.7,1.6c0.3,0.6,0.7,1.2,1.2,1.5
			c0.5,0.3,1.1-0.2,1.5-0.7c0.8-1.1,1.4-2.4,2-3.7c0.6-1.3,1.3-2.6,2.2-3.7c0.5-0.5,1.1-1.1,2-1.2c0.4,0,0.7,0,1.1,0
			c0.2,0.1,0.5,0,0.7,0.4c0.1,0.4-0.1,0.6-0.1,0.8c-0.5,0.7-1,1.1-1.4,1.7c-0.4,0.5-0.8,1.1-1,1.7c0,0.1,0,0.3,0,0.4l0,0.1
			c0,0,0,0,0,0c0,0,0,0,0.1,0.1c0.2,0.1,0.5,0.2,0.9,0.3c0.7,0.1,1.4,0.1,2.1,0.1c2.8-0.1,5.6-0.6,8.3-1.2
			c5.5-1.4,10.8-3.5,15.6-6.4c2.4-1.5,4.6-3.2,6.6-5.1c1-1,1.9-2,2.8-3.1c0.8-1.1,1.6-2.3,2.4-3.4c0.8-1.2,1.5-2.4,2.1-3.6
			c0.3-0.6,0.5-1.3,0.5-1.6c0-0.1,0-0.1-0.2-0.2c-0.2-0.1-0.5-0.2-0.8-0.3c-1.3-0.3-3-0.7-4.2-1.9c-1.2-1.2-1.8-2.7-2.2-4.2
			c-0.2-0.7-0.3-1.5-0.4-2.2c-0.1-0.6-0.2-1.2-0.5-1.7c-0.5-1.1-1.5-2-2.6-2.5c-0.5-0.3-1.2-0.5-1.9-0.7c-0.7-0.2-1.3-0.4-2-0.6
			c-1.4-0.4-2.7-0.6-4.1-0.9c-5.5-1-11.2-1.4-16.8-1.4c-2.8,0-5.6,0.2-8.4,0.6c-2.8,0.4-5.6,0.9-8.1,2c-1.3,0.5-2.5,1.2-3.4,2.1
			c-1,1.1-2.3,2-3.6,2.5c-2.7,1.1-5.6,1.4-8.5,1.5c-2.9,0-5.7-0.2-8.5-0.6c-1.4-0.2-2.8-0.4-4.2-0.7C79.8,95.4,78.4,95.1,77,95z
			 M77,94.8c1.4,0,2.8,0.3,4.3,0.5c1.4,0.2,2.8,0.4,4.2,0.6c2.8,0.3,5.7,0.6,8.5,0.5c2.8-0.1,5.7-0.5,8.2-1.7
			c1.3-0.6,2.4-1.4,3.3-2.5c1-1.1,2.3-1.9,3.7-2.5c2.7-1.2,5.5-1.9,8.4-2.3c2.9-0.4,5.7-0.7,8.6-0.8c2.9-0.1,5.7,0,8.6,0.2
			c2.9,0.2,5.7,0.5,8.6,1c1.4,0.3,2.8,0.5,4.2,0.9c0.7,0.2,1.4,0.4,2.1,0.6c0.7,0.2,1.4,0.4,2.1,0.8c1.5,0.7,2.7,1.9,3.4,3.3
			c0.4,0.7,0.6,1.5,0.7,2.3c0.1,0.7,0.2,1.3,0.3,2c0.3,1.3,0.8,2.5,1.7,3.3c0.9,0.9,2,1.2,3.4,1.5c0.4,0.1,0.7,0.2,1.2,0.4
			c0.2,0.1,0.5,0.3,0.7,0.6c0.2,0.3,0.3,0.6,0.3,0.9c0,0.6-0.1,1-0.2,1.4c-0.1,0.4-0.3,0.7-0.5,1.1c-0.7,1.3-1.5,2.6-2.3,3.8
			c-0.8,1.2-1.6,2.4-2.5,3.5c-0.9,1.1-1.9,2.2-3,3.2c-2.1,2-4.5,3.7-7,5.2c-5,3-10.4,5-16,6.2c-2.8,0.6-5.7,1-8.6,1.1
			c-0.7,0-1.5,0-2.2-0.2c-0.4-0.1-0.7-0.2-1.1-0.4c-0.1-0.1-0.2-0.2-0.3-0.3c0-0.1-0.1-0.2-0.1-0.2l0-0.2c0-0.2,0-0.4,0-0.6
			c0.4-1.6,1.8-2.5,2.5-3.5c0.1-0.1,0.1-0.3,0.1-0.2c0,0-0.1-0.1-0.2-0.1c-0.3-0.1-0.7-0.1-1,0c-0.6,0.1-1.1,0.5-1.6,1
			c-0.9,1-1.5,2.3-2.2,3.6c-0.7,1.3-1.2,2.6-2.1,3.8c-0.2,0.3-0.5,0.6-0.9,0.8c-0.3,0.2-0.9,0.3-1.3,0.1c-0.8-0.4-1.1-1.1-1.5-1.7
			c-0.6-1.2-2-1.6-3.4-1.8c-1.4-0.1-2.8,0-4.2,0.1c-2.8,0.4-5.6,1-8.3,1.8c-5.5,1.5-10.8,3.4-16.3,5.1c-1.4,0.4-2.7,0.9-4.1,1.3
			c-0.7,0.2-1.4,0.4-2.1,0.6c-0.4,0.1-0.7,0.2-1.1,0.2c-0.4,0.1-0.8,0.1-1.3,0.1c-1.6-0.2-2.9-0.8-4.3-1.4c-1.3-0.6-2.6-1.4-3.8-2.2
			c-1.2-0.8-2.4-1.8-3.3-3c-0.5-0.6-0.9-1.3-1.1-2.2c-0.1-0.4,0-1,0.2-1.4c0-0.1,0.1-0.2,0.2-0.3l0.1-0.2c0.1-0.1,0.1-0.3,0.2-0.4
			c0.4-1.2,0.4-2.7,0.5-4.1c0-1.4,0-2.8-0.1-4.2c-0.1-2.8-0.3-5.7-0.1-8.6c0.1-1.4,0.3-2.9,0.9-4.2c0.6-1.3,1.4-2.5,2.2-3.7
			c0.9-1.1,1.8-2.2,2.9-3.1c1.1-0.9,2.2-1.9,3.6-2.3C71.8,97.1,74.3,95.8,77,94.8z"/>
	</g>
	<path class="st10" d="M-1055.7-1065.3"/>
	<g>
		<path class="st6" d="M130.5,98.2c-3.4-1.4-6.7-2-10-2.2c-3.3-0.3-6.7-0.1-10,0.4l-2.5,0.4l-2.5,0.5l-1.2,0.2l-1.2,0.3
			c-0.8,0.2-1.7,0.4-2.5,0.6c-1.6,0.5-3.3,1-5,1.5c-1.7,0.5-3.3,1.1-5.1,1.5c1.3-1.2,2.8-2.3,4.2-3.4c1.5-1,3.1-1.9,4.7-2.7
			c0.8-0.4,1.7-0.7,2.5-1.1l1.3-0.5l1.3-0.4l2.7-0.7c0.9-0.2,1.8-0.3,2.7-0.5c3.7-0.5,7.5-0.4,11.1,0.5c0.9,0.3,1.8,0.5,2.7,0.9
			l1.3,0.5c0.4,0.2,0.8,0.4,1.2,0.7C127.8,95.7,129.4,96.8,130.5,98.2z"/>
	</g>
</g>
<g id="Layer_3">
	<g id="Layer_6">
		<path d="M65.2,23.4l-11,13.1l3.1,39.6l9.1,10.9c0,0-7.3-0.4,3.6,0.9s66.5-5.6,74.1-7.8s1.3-41.2,1.3-41.2l-21.4-26.4l-30.4,1.6
			L65.2,23.4z"/>
	</g>
	<path class="st1" d="M96.7,88.1c0,0,0.7,18-4.3,21.4c0,0,12.1,18.6,30.8,4.9c0,0-3.1-21.8-0.1-30.2S96.7,88.1,96.7,88.1z"/>
	<path class="st0" d="M79.5,24.8c0,0,38.8-17,52.7,11.5c0,0-0.9,15-1,20s0.9,20.5-6.3,24.5c-7.1,4-11,4.2-16.5,8S95.8,92.4,90.8,91
		s-11.3-7.1-17.2-11c-5.9-3.8-4-17.2-4-17.2s-5.9-13,3.7-30.9L79.5,24.8z"/>
	<path class="st0" d="M75.5,21.7c0.2-0.2,54.3-27.3,59.5,16.8c0,0-0.9,15.5-1.1,20.7c-0.2,5.2,0.9,21.3-6.5,25.4
		C120,88.8,116,89,110.3,93c-5.8,4-13,3.8-18.2,2.3c-5.2-1.4-11.7-7.4-17.8-11.4c-6.1-3.9-4.1-17.8-4.1-17.8S63.9,52.6,73.8,34
		L75.5,21.7z"/>
	<g>
		<path class="st6" d="M88.3,105.4c0.6,0.4,1.2,0.9,1.7,1.5c0.5,0.6,1,1.1,1.5,1.7c0.5,0.6,0.9,1.1,1.5,1.7l0.7,0.8l0.8,0.8
			c2.1,2,4.5,3.6,7.2,4.6c0.6,0.3,1.4,0.5,2,0.7l1,0.3c0.3,0.1,0.7,0.1,1.1,0.2c0.7,0.1,1.4,0.3,2.1,0.4c0.7,0.1,1.5,0.1,2.2,0.2
			c0.7,0.1,1.5,0.1,2.2,0.1l2.2,0.1c1.5,0,3-0.1,4.5-0.1c-1.5,0.4-2.9,0.7-4.4,0.9l-2.3,0.2c-0.8,0.1-1.5,0.1-2.3,0.1
			c-3,0.1-6.1-0.5-9-1.6c-2.9-1.1-5.5-2.9-7.5-5.2c-1.1-1.1-1.9-2.4-2.7-3.6l-1.2-1.9C89.2,106.5,88.8,105.9,88.3,105.4z"/>
	</g>
	<g>
		<path class="st6" d="M99.8,120.7c3.7,0.9,7.5,0.6,11-0.4c3.5-1,6.7-3,9.4-5.3l1-0.9c0.2-0.1,0.4-0.3,0.5-0.4l0.5-0.5l1.9-2
			c0.3-0.3,0.6-0.7,0.9-1l0.9-1.1c0.6-0.7,1.2-1.4,1.7-2.2c1-1.6,2.1-3.1,3.1-4.7c0.9-1.6,1.9-3.2,2.9-4.9c-0.6,1.8-1.4,3.5-2.1,5.3
			c-0.8,1.7-1.8,3.4-2.7,5.1c-0.5,0.8-1.1,1.6-1.6,2.4l-0.8,1.2c-0.3,0.4-0.6,0.8-0.9,1.1c-1.3,1.4-2.5,2.9-4.1,4.1l-1.1,0.9
			c-0.4,0.3-0.8,0.5-1.2,0.8l-1.2,0.8c-0.4,0.3-0.8,0.5-1.3,0.7c-0.9,0.4-1.8,0.9-2.7,1.2c-0.9,0.3-1.8,0.7-2.8,0.8
			C107.3,122.5,103.2,122.3,99.8,120.7z"/>
	</g>
</g>
<g id="Layer_4">
	<path d="M92.1,50.4l3.9,2.3c0,0,5.1-3.4,9.1-4.1c4.7-1,16.9-0.4,18.9,0c0,0-12-4.3-18.9-2.7C100.3,46.9,95.4,49.4,92.1,50.4z"/>
	<path d="M64.5,53.4c0,0,4.6-2.8,5.6-2.4s8.8,2.9,10.9,2.6l1.7-1.4c0,0-8.5-2.5-11.9-2.7C70.7,49.6,64.4,51.7,64.5,53.4z"/>
</g>
<g id="Layer_5">
	<path class="st11" d="M98.3,63.2c0,0,0.4-15.9,23-7.8c0,0-2.2,13.6-20.7,8.3C100.6,63.8,99.8,63.2,98.3,63.2z"/>
	<path class="st11" d="M68.3,57.5c0,0,11.8-8.6,16.5,7c-1.1-0.5-11.9,4.7-15.3,0.2l0.1-1.9C69.6,62.9,67.9,57.8,68.3,57.5z"/>
	<circle class="st12" cx="78.6" cy="62.1" r="3.4"/>
	<circle class="st12" cx="112.5" cy="58.8" r="4.4"/>
	<circle class="st13" cx="80.5" cy="61.9" r="1.1"/>
	<circle class="st13" cx="114.9" cy="58.2" r="1.1"/>
	<path class="st14" d="M84.3,64.1c0,0-1.8-6.7-15-1.3l-1.2-3.9c-0.3-0.9-0.3-1.7,0.4-2.2c3.3-2.1,12.6-6.6,16.3,7L84.3,64.1z"/>
	<g>
		<path class="st12" d="M71,66.3c0,0.4-0.2,0.7-0.5,1c-0.2,0.2-0.5,0.4-1,0.5c0-0.4,0.2-0.7,0.5-1C70.2,66.6,70.5,66.4,71,66.3z"/>
	</g>
	<g>
		<path class="st12" d="M73.1,66.7c0,0.5-0.2,0.8-0.5,1c-0.3,0.3-0.5,0.5-1,0.6c0-0.5,0.2-0.8,0.5-1C72.4,67,72.7,66.8,73.1,66.7z"
			/>
	</g>
	<g>
		<path class="st12" d="M75.5,66.8c0,0.4-0.1,0.7-0.3,1c-0.2,0.3-0.5,0.5-0.9,0.6c0-0.4,0.1-0.7,0.3-1
			C74.8,67.1,75.1,66.8,75.5,66.8z"/>
	</g>
	<g>
		<path class="st12" d="M118.8,61.1c0.4-0.1,0.8,0,1.1,0.1c0.3,0.2,0.6,0.4,0.8,0.8c-0.4,0.1-0.8,0-1.1-0.1
			C119.3,61.7,119,61.5,118.8,61.1z"/>
	</g>
	<g>
		<path class="st12" d="M117.1,62.5c0.4,0.1,0.7,0.3,1,0.5c0.2,0.3,0.5,0.6,0.5,1c-0.5-0.1-0.8-0.3-1-0.5
			C117.4,63.3,117.2,63,117.1,62.5z"/>
	</g>
	<g>
		<path class="st12" d="M115.3,63.6c0.4,0.1,0.7,0.4,0.9,0.6c0.2,0.3,0.3,0.6,0.3,1c-0.4-0.1-0.7-0.4-0.9-0.6
			C115.4,64.3,115.2,64,115.3,63.6z"/>
	</g>
	<g>
		<path d="M67.9,63.4c1.3-0.8,2.7-1.4,4.2-1.9c1.5-0.5,3-0.8,4.5-1c1.5-0.1,3.2-0.1,4.7,0.5c0.8,0.3,1.5,0.7,2,1.3
			c0.6,0.6,1,1.3,1.2,2c-0.8-1.3-2.1-2.1-3.5-2.4c-1.4-0.3-2.9-0.3-4.3-0.2C73.8,61.9,70.8,62.7,67.9,63.4z"/>
	</g>
	<path class="st14" d="M97.9,62.9c0,0,12.5-7.5,24.6-6.7c-1.4-3,0.8-7.9-10.1-6.4C100.8,51.4,97.3,60.6,97.9,62.9z"/>
	<g>
		<path d="M97.9,62.9c1.9-1.4,3.9-2.5,5.9-3.5c2.1-1,4.2-1.8,6.5-2.5c1.1-0.3,2.2-0.6,3.4-0.8c1.2-0.2,2.3-0.4,3.5-0.4
			c2.3-0.1,4.7,0,6.9,0.8c-2.3-0.1-4.5,0.1-6.7,0.4c-2.2,0.4-4.4,0.9-6.5,1.5C106.5,59.7,102.3,61.3,97.9,62.9z"/>
	</g>
	<g>
		<path d="M121.7,56.4c0.4-0.8,1-1.4,1.6-2.1c0.6-0.6,1.3-1.2,2.1-1.6c-0.4,0.8-1,1.4-1.6,2.1C123.1,55.5,122.5,56,121.7,56.4z"/>
	</g>
	<g>
		<path d="M120.6,56c0.2-0.9,0.6-1.6,1-2.4c0.4-0.7,0.9-1.4,1.6-2c-0.2,0.9-0.6,1.6-1,2.4C121.7,54.7,121.2,55.4,120.6,56z"/>
	</g>
	<g>
		<path d="M118.7,56.4c0-0.9,0.2-1.7,0.5-2.5c0.3-0.8,0.6-1.6,1.1-2.3c0,0.9-0.2,1.7-0.5,2.5C119.5,54.9,119.2,55.7,118.7,56.4z"/>
	</g>
	<g>
		<path d="M70.1,62.9c-0.8-0.4-1.4-1-2.1-1.6c-0.6-0.6-1.2-1.3-1.6-2.1c0.8,0.4,1.4,1,2.1,1.6C69.2,61.4,69.7,62.1,70.1,62.9z"/>
	</g>
	<g>
		<path d="M71,62.6c-0.6-0.7-1-1.4-1.4-2.2c-0.4-0.8-0.7-1.6-0.8-2.5c0.6,0.7,1,1.4,1.4,2.2C70.6,60.9,70.9,61.7,71,62.6z"/>
	</g>
	<g>
		<path d="M71.9,62.2c-0.4-0.8-0.5-1.6-0.7-2.5c-0.1-0.8-0.1-1.7,0-2.6c0.4,0.8,0.5,1.6,0.7,2.5C72,60.5,72,61.4,71.9,62.2z"/>
	</g>
	<g>
		<path class="st12" d="M82.4,57.9c1,1,1.8,2.2,2.4,3.5c0.6,1.3,1,2.7,1.3,4.1c0.2,1.4,0.2,2.9,0,4.3c-0.2,1.4-0.7,2.8-1.3,4.1
			l0-0.2c0.1,0.5,0.2,1,0.5,1.4c0.3,0.4,0.6,0.8,1,1.1c0.8,0.6,1.9,0.9,3,1.1c-0.5,0-1.1,0-1.6-0.1c-0.5-0.1-1.1-0.3-1.6-0.6
			c-0.5-0.3-1-0.7-1.3-1.1c-0.4-0.5-0.6-1.1-0.7-1.6c0-0.1,0-0.1,0-0.2l0-0.1c0.5-1.3,0.9-2.6,1.1-3.9c0.2-1.3,0.2-2.7,0.1-4
			C84.9,62.9,83.9,60.2,82.4,57.9z"/>
	</g>
	<path class="st15" d="M91.8,72.8c0,0,3.4-0.6,1.4,2.4"/>
	<g>
		<path class="st16" d="M86.1,84.9c2-0.1,3.9-0.3,5.8-0.4c1.9-0.2,3.9-0.3,5.8-0.6c1.9-0.2,3.8-0.6,5.7-1c1.9-0.5,3.7-1,5.5-1.9
			c-1.6,1.2-3.4,2-5.3,2.6c-1.9,0.6-3.8,1-5.8,1.2c-2,0.3-3.9,0.4-5.9,0.4C90,85.2,88,85.1,86.1,84.9z"/>
	</g>
	<g>
		<path class="st16" d="M92.4,87.6l2.6-0.2c0.9-0.1,1.7-0.1,2.6-0.3c0.9-0.1,1.7-0.2,2.5-0.4c0.8-0.2,1.7-0.5,2.4-0.9
			c-0.7,0.5-1.5,0.9-2.4,1.2c-0.8,0.3-1.7,0.4-2.6,0.6C95.9,87.8,94.1,87.8,92.4,87.6z"/>
	</g>
	<g>
		<path class="st16" d="M113.5,79.7c-0.1-0.3-0.1-0.6-0.3-0.9c-0.1-0.3-0.4-0.5-0.6-0.7c0.2,0,0.3,0.1,0.5,0.2
			c0.1,0.1,0.3,0.2,0.3,0.4C113.6,78.9,113.6,79.3,113.5,79.7z"/>
	</g>
	<g>
		<path class="st16" d="M88.7,84.8c0,0,5.4-4.5,14.4-1.9l-6.3,1L88.7,84.8z"/>
		<path class="st16" d="M88.7,84.8c1-0.8,2.1-1.4,3.2-1.9c1.2-0.5,2.4-0.8,3.7-1c1.3-0.2,2.5-0.2,3.8-0.1c1.3,0.1,2.5,0.4,3.7,0.7
			l1.6,0.4l-1.6,0.2l-3.6,0.6c-1.2,0.2-2.4,0.4-3.6,0.5C93.5,84.5,91,84.6,88.7,84.8z M88.7,84.8c2.5-0.3,4.9-0.7,7.2-1l0.9-0.1
			l0.9-0.2l1.8-0.3l3.6-0.6l0,0.7c-0.6-0.1-1.2-0.3-1.8-0.4c-0.6-0.1-1.2-0.2-1.8-0.3c-1.2-0.2-2.5-0.1-3.7,0
			c-1.2,0.1-2.4,0.4-3.6,0.7C90.9,83.6,89.8,84.1,88.7,84.8z"/>
	</g>
</g>
<g id="Layer_2">
	<path class="st12" d="M65.4,24.9c0,0-12.5,3.5-6.1,19.6c0,0-2.4-11.4,6.5-17.3c0,0-8.6,8.6-3.2,20.9c0,0,9.9-1.1,12.5-11.5
		c0,0,6.7,21.2,59.1,9.5c0,0-17.2-1.1-18.7-12.3c0,0-0.4,8.2,16.7,11.1c0,0,5.6-6-4.6-20c0,0,12.9,12.5-1,30.1
		c-14.2,17.9,3.5,26.4,2.4,29.6l23.3,0.8c0,0,10.3-27.8,8.2-35.6c-2-7.2-22.3-47.7-49.9-41.6c0,0,6.3-3.2,14.5,0.4
		s-20.2-14-40.9-3.4c0,0,2.8-5.1,0.4-3.5c-2.4,1.6-8.6,6.3-11.9,11.8c0,0-4.5-1.2-7.8,0.4c-3.4,1.6,3.9,2.2,3.9,2.2
		S30.6,37.3,51.1,85.3c0,0,10.6,5.8,17.5,5.8l5.6-2.4c0,0-16.4-14.1-11.5-31.9c0,0-4.7-5.3-5-17.1S65.4,24.9,65.4,24.9z"/>
</g>
</svg>
